<?xml version="1.0" encoding="UTF-8" standalone="no"?>
<!-- Created with Inkscape (http://www.inkscape.org/) -->

<svg
   xmlns:dc="http://purl.org/dc/elements/1.1/"
   xmlns:cc="http://creativecommons.org/ns#"
   xmlns:rdf="http://www.w3.org/1999/02/22-rdf-syntax-ns#"
   xmlns:svg="http://www.w3.org/2000/svg"
   xmlns="http://www.w3.org/2000/svg"
   xmlns:sodipodi="http://sodipodi.sourceforge.net/DTD/sodipodi-0.dtd"
   xmlns:inkscape="http://www.inkscape.org/namespaces/inkscape"
   version="1.1"
   id="svg869"
   width="1650"
   height="1100"
   viewBox="0 0 1650 1100"
   sodipodi:docname="japan.svg"
   inkscape:version="0.92.4 (5da689c313, 2019-01-14)">
  <metadata
     id="metadata875">
    <rdf:RDF>
      <cc:Work
         rdf:about="">
        <dc:format>image/svg+xml</dc:format>
        <dc:type
           rdf:resource="http://purl.org/dc/dcmitype/StillImage" />
        <dc:title></dc:title>
      </cc:Work>
    </rdf:RDF>
  </metadata>
  <defs
     id="defs873" />
  <sodipodi:namedview
     pagecolor="#ffffff"
     bordercolor="#666666"
     borderopacity="1"
     objecttolerance="10"
     gridtolerance="10"
     guidetolerance="10"
     inkscape:pageopacity="0"
     inkscape:pageshadow="2"
     inkscape:window-width="1920"
     inkscape:window-height="1025"
     id="namedview871"
     showgrid="false"
     inkscape:zoom="0.75454545"
     inkscape:cx="286.92771"
     inkscape:cy="762.04819"
     inkscape:window-x="0"
     inkscape:window-y="27"
     inkscape:window-maximized="1"
     inkscape:current-layer="svg869" />
  <path
     style="fill:#000000"
     d="m 464,1023.0814 v -15.8871 l 35.25,-0.3834 c 19.3875,-0.2109 35.37306,-0.319 35.52347,-0.2403 0.60592,0.3169 2.53155,28.4577 1.98474,29.0045 -1.11211,1.1121 -21.28588,2.3429 -47.00821,2.8679 l -25.75,0.5255 z"
     id="path1119" />
  <path
     style="fill:#000000"
     d="m 393.75,1037.2069 -4.75,-0.3165 v -5.7916 c 0,-3.1853 0.29238,-9.9107 0.64974,-14.9452 L 390.29949,1007 H 425.64974 461 v 15.5528 15.5528 l -31.25,-0.2911 c -17.1875,-0.1601 -33.3875,-0.4335 -36,-0.6076 z"
     id="path1117" />
  <path
     style="fill:#000000"
     d="m 352.5,1035.4969 c -26.61905,-1.6258 -36.97936,-2.5571 -38.43162,-3.4546 -0.92998,-0.5748 -0.8183,-4.017 0.49131,-15.1431 0.93217,-7.9196 1.80714,-14.5312 1.94436,-14.6926 0.13722,-0.1614 4.24245,0.2207 9.12272,0.8491 4.88028,0.6285 20.57323,1.6605 34.87323,2.2935 l 26,1.1508 -0.0556,3.25 c -0.0306,1.7875 -0.14305,8.65 -0.25,15.25 l -0.1944,12 -6.75,-0.1408 c -3.7125,-0.077 -15.75,-0.6904 -26.75,-1.3623 z"
     id="path1115" />
  <path
     style="fill:#000000"
     d="m 540.6391,1033.2494 c -0.28576,-1.5122 -0.78273,-6.3494 -1.1044,-10.7494 -0.32166,-4.4 -0.83202,-10.0738 -1.13415,-12.6085 l -0.54931,-4.6085 12.51727,-1.2308 c 6.88449,-0.677 22.78046,-2.7121 35.32437,-4.52255 12.54392,-1.81044 22.94339,-3.17148 23.10994,-3.02453 0.16655,0.14695 1.33549,7.10888 2.59765,15.47088 1.59315,10.555 1.95921,15.3063 1.19718,15.5393 -3.53837,1.0819 -35.00737,4.8667 -66.26832,7.9702 -5.00769,0.4971 -5.18706,0.4267 -5.69023,-2.2361 z"
     id="path1113" />
  <path
     style="fill:#000000"
     d="m 289.5,1029.5507 c -20.95295,-3.1568 -51.22839,-9.5287 -54.30274,-11.4288 -0.98777,-0.6105 -0.34434,-4.1221 2.87745,-15.7041 2.28234,-8.20479 4.26437,-15.04545 4.40451,-15.20147 0.14013,-0.15602 6.27714,1.29059 13.63778,3.21469 20.50705,5.36061 39.5622,9.37659 48.16079,10.15018 4.27778,0.3848 7.96413,1.0012 8.19188,1.3697 0.22775,0.3685 -0.31274,7.2803 -1.20109,15.3596 l -1.61519,14.6895 -2.5767,-0.095 c -1.41718,-0.052 -9.32669,-1.1117 -17.57669,-2.3546 z"
     id="path1111" />
  <path
     style="fill:#000000"
     d="m 617.10063,1021.6194 c -1.85118,-9.6022 -4.30286,-25.75069 -3.95132,-26.02614 0.19288,-0.15112 6.42569,-1.26784 13.85069,-2.48159 7.425,-1.21375 22.87964,-4.48327 34.34364,-7.2656 11.464,-2.78233 21.21229,-4.67343 21.66285,-4.20243 0.6591,0.68899 7.84994,25.41806 8.35802,28.74296 0.0745,0.4877 -1.21451,1.2792 -2.86451,1.7589 -6.54737,1.9036 -33.79686,7.8409 -47.5,10.3497 -7.975,1.46 -16.39279,3.0122 -18.70621,3.4491 l -4.20621,0.7946 z"
     id="path1109" />
  <path
     style="fill:#000000"
     d="m 227.5,1016.0246 c -1.1,-0.4621 -6.725,-2.5281 -12.5,-4.5913 -13.11086,-4.684 -34.91576,-15.57901 -46.04577,-23.00714 -10.53894,-7.03366 -22.16255,-16.3347 -21.75856,-17.41088 0.16738,-0.44589 5.1566,-5.82358 11.08714,-11.95042 l 10.78282,-11.1397 7.29426,5.96035 c 14.63,11.95461 38.78454,25.06339 55.58556,30.16654 3.88,1.17851 7.05455,2.68088 7.05455,3.33858 0,1.15967 -3.42808,13.66357 -6.67838,24.35937 -1.68979,5.5606 -1.71232,5.5806 -4.82162,4.2746 z"
     id="path1107" />
  <path
     style="fill:#000000"
     d="m 693.08399,1004.1895 c -1.08057,-3.6792 -3.06063,-10.6247 -4.40015,-15.43439 l -2.43549,-8.74489 4.12582,-1.08386 c 14.13188,-3.71245 28.75636,-8.75757 44.79453,-15.45311 10.08221,-4.20908 18.85875,-7.87215 19.50341,-8.14016 0.71223,-0.2961 3.75289,4.87996 7.75,13.1927 3.61784,7.52399 6.57789,13.87005 6.57789,14.10235 0,1.57755 -33.21375,15.0465 -52.5,21.28996 -8.8,2.8488 -17.22655,5.5804 -18.72567,6.0703 -2.68043,0.8758 -2.75829,0.7795 -4.69034,-5.7989 z"
     id="path1105" />
  <path
     style="fill:#000000"
     d="m 361,1001.3641 c -22.00632,-0.9802 -42.74211,-2.77288 -43.75166,-3.78243 -0.16874,-0.16874 0.48626,-7.39504 1.45555,-16.05844 l 1.76235,-15.75165 6.01688,0.58759 c 7.73329,0.75522 32.45169,2.37748 48.64108,3.19231 l 12.62421,0.6354 -0.45415,15.65656 c -0.24978,8.61111 -0.53068,15.88156 -0.62421,16.15656 -0.0935,0.275 -11.64505,-0.011 -25.67005,-0.6359 z"
     id="path1103" />
  <path
     style="fill:#000000"
     d="m 390.44789,986.75 c 0.3994,-8.9375 0.79952,-16.32172 0.88915,-16.40939 0.0896,-0.0877 15.80046,0.0933 34.91296,0.40217 L 461,971.30433 V 987.15217 1003 H 425.36085 389.7217 Z"
     id="path1101" />
  <path
     style="fill:#000000"
     d="M 464,987.07925 V 971.1585 l 21.25,-0.006 c 11.6875,-0.003 26.9875,-0.32173 34,-0.70758 7.17679,-0.39489 12.78529,-0.31762 12.83074,0.17678 0.0444,0.48308 0.6069,7.68631 1.25,16.00719 l 1.16926,15.12881 -6.5,0.614 c -3.575,0.3378 -19.4375,0.6173 -35.25,0.6212 L 464,1003 Z"
     id="path1099" />
  <path
     style="fill:#000000"
     d="m 537.97029,1000.25 c -0.0163,-0.4125 -0.67797,-7.275 -1.47029,-15.25 -0.79232,-7.975 -1.45394,-14.8375 -1.47029,-15.25 -0.0163,-0.4125 1.76183,-0.75 3.9515,-0.75 4.2009,0 33.73027,-3.84885 52.8592,-6.88965 7.95994,-1.26534 11.45543,-1.47595 11.72625,-0.70653 0.90975,2.58458 4.5173,29.84555 4.01593,30.34692 -1.13647,1.13648 -59.95722,9.20806 -67.33259,9.23966 -1.2375,0.01 -2.26337,-0.3279 -2.27971,-0.7404 z"
     id="path1097" />
  <path
     style="fill:#000000"
     d="m 304,996.42534 c -13.01707,-1.53042 -57.739,-11.83101 -59.64597,-13.73797 -0.70394,-0.70394 6.50282,-26.76956 8.13407,-29.41955 0.0786,-0.12769 3.26344,0.66284 7.07741,1.75674 9.54385,2.73731 34.80431,7.5899 47.18449,9.06425 9.38551,1.11772 10.24471,1.39738 10.18726,3.31593 -0.0345,1.15239 -0.822,8.40477 -1.75,16.11639 L 313.5,997.54226 Z"
     id="path1095" />
  <path
     style="fill:#000000"
     d="m 611.96846,989.75 c -0.0173,-0.6875 -1.09186,-7.55 -2.38781,-15.25 -2.48091,-14.74046 -2.38377,-15.45328 2.11018,-15.48469 2.86676,-0.02 41.27975,-7.28982 52.70165,-9.97396 4.89086,-1.14936 8.99228,-1.96635 9.11427,-1.81554 0.49109,0.6071 8.52792,29.07 8.27049,29.29042 -0.93614,0.80152 -44.36696,10.72469 -54.38833,12.42676 -14.16641,2.40609 -15.3785,2.46953 -15.42045,0.80701 z"
     id="path1093" />
  <path
     style="fill:#000000"
     d="m 234,980.54523 c -14.4663,-4.10179 -40.23935,-18.18871 -54.79677,-29.95057 l -7.20687,-5.82288 5.91869,-6.63589 c 3.25528,-3.64974 7.92287,-8.58494 10.37242,-10.9671 l 4.45374,-4.33122 7.87939,5.68404 c 8.60571,6.20798 32.42047,18.25445 41.74483,21.11623 3.22598,0.99009 6.07881,2.35625 6.33961,3.03589 0.26081,0.67965 -0.64868,4.7436 -2.02108,9.031 -1.3724,4.2874 -3.27202,10.60777 -4.22139,14.04527 -1.86084,6.73779 -1.77768,6.69067 -8.46257,4.79523 z"
     id="path1091" />
  <path
     style="fill:#000000"
     d="M 765.50716,968.01428 C 761.92822,960.87213 759,954.62792 759,954.13825 c 0,-0.48967 7.0875,-4.85349 15.75,-9.69738 8.6625,-4.8439 22.60949,-13.4781 30.99331,-19.18713 8.38383,-5.70902 15.70084,-10.09727 16.26003,-9.75168 1.31972,0.81563 16.98519,20.30448 17.59183,21.88536 0.54975,1.43263 -8.28966,8.16452 -26.11604,19.8894 C 801.85261,964.92387 774.16421,981 772.61996,981 c -0.33311,0 -3.53387,-5.84357 -7.1128,-12.98572 z"
     id="path1089" />
  <path
     style="fill:#000000"
     d="m 684.64218,974.25 c -0.27093,-0.9625 -2.15428,-7.54067 -4.18523,-14.61815 -2.92678,-10.19931 -3.42155,-13.0357 -2.38558,-13.67596 0.71888,-0.44429 4.19694,-1.53372 7.72904,-2.42095 9.26122,-2.32634 31.2031,-10.56002 43.28052,-16.24099 l 10.3989,-4.89142 6.76009,13.73235 c 3.71804,7.55279 6.76008,14.10393 6.76008,14.55808 0,1.52635 -39.36022,17.21046 -53.40094,21.279 C 691.95355,974.18738 685.57137,976 685.41645,976 c -0.15492,0 -0.50334,-0.7875 -0.77427,-1.75 z"
     id="path1087" />
  <path
     style="fill:#000000"
     d="M 135.55227,960.76452 C 117.41104,941.69119 104.35302,919.55349 95.91896,893.57286 94.325056,888.66293 93.128739,884.55097 93.260477,884.43517 93.496026,884.22812 122.84887,877 123.45414,877 c 0.17058,0 1.53391,3.92505 3.02963,8.72233 1.49571,4.79728 4.73484,12.73514 7.19805,17.63969 5.33149,10.61563 22.15296,33.67355 28.277,38.76053 l 4.34622,3.61021 -10.76178,11.38362 c -5.91898,6.26099 -11.06971,11.50265 -11.44607,11.64814 -0.37636,0.14548 -4.22157,-3.45452 -8.54492,-8 z"
     id="path1085" />
  <path
     style="fill:#000000"
     d="m 749.69666,936.12997 c -3.74184,-7.49648 -6.7789,-14.07997 -6.74902,-14.62997 0.0299,-0.55 3.73648,-3.025 8.23688,-5.5 15.51496,-8.53247 16.47357,-9.11973 35.98777,-22.04668 l 11.67229,-7.73217 9.19677,11.43711 c 5.05822,6.29042 9.25569,12.05241 9.32771,12.80444 0.1914,1.99864 -24.82959,18.98551 -43.61369,29.60954 -8.94045,5.0566 -16.48037,9.30494 -16.75537,9.44076 -0.275,0.13581 -3.5615,-5.88655 -7.30334,-13.38303 z"
     id="path1083" />
  <path
     style="fill:#000000"
     d="m 164.75582,938.95025 c -5.32115,-4.38613 -23.03237,-28.55578 -27.63849,-37.71689 -3.50414,-6.96939 -9.80846,-25.02241 -8.95266,-25.63676 1.52963,-1.09806 29.27076,-7.52949 29.788,-6.90598 0.36928,0.44516 2.37358,5.20071 4.45399,10.56789 4.8983,12.63697 12.3631,24.84924 20.9875,34.33518 l 6.89417,7.58285 -10.3763,10.41173 C 174.20507,937.31472 169.29272,942 168.99571,942 c -0.29701,0 -2.20496,-1.37239 -4.23989,-3.04975 z"
     id="path1081" />
  <path
     style="fill:#000000"
     d="M 833.63261,924.70324 C 828.75554,918.54146 824.91112,913.05 825.08945,912.5 c 0.17832,-0.55 8.86438,-9.25886 19.30235,-19.35301 12.57438,-12.16021 21.13927,-21.37407 25.38291,-27.30621 6.08859,-8.51117 6.51144,-8.88546 8.56504,-7.58141 1.18814,0.75447 5.76025,3.5834 10.16025,6.28651 4.4,2.70311 9.44731,5.88318 11.21625,7.06683 l 3.21625,2.15208 -4.09172,5.86761 c -6.51208,9.33845 -16.7184,20.95377 -29.49245,33.56392 -10.50998,10.37514 -24.97397,22.86456 -26.34833,22.75135 -0.275,-0.0226 -4.49033,-5.08265 -9.36739,-11.24443 z"
     id="path1079" />
  <path
     style="fill:#000000"
     d="m 811.14209,896.67621 -10.07307,-12.49184 4.71549,-3.84072 c 12.53446,-10.20918 29.01,-27.22346 36.75974,-37.96176 l 2.97201,-4.11811 10.99187,6.62435 c 6.04553,3.64339 12.05821,7.37662 13.36152,8.29607 l 2.36965,1.67171 -5.55352,7.82205 c -4.58114,6.45247 -29.90088,32.58273 -42.3282,43.68318 l -3.14242,2.80691 z"
     id="path1077" />
  <path
     style="fill:#000000"
     d="M 90.653997,873.82307 C 89.730463,869.79538 88.277644,861.775 87.425511,856 85.69199,844.25173 84.373368,805.17096 85.426177,796.74456 l 0.682928,-5.46597 4.195447,0.76394 C 92.612049,792.4627 97.425,793.0799 101,793.4141 c 3.575,0.33419 8.525,0.87094 11,1.19277 l 4.5,0.58514 0.0897,25.654 c 0.0785,22.45287 0.37053,27.02658 2.34016,36.65399 1.23774,6.05 2.46798,12.125 2.73386,13.5 0.47113,2.43645 0.15744,2.58286 -12.34016,5.75968 -7.05296,1.79283 -13.761111,3.51321 -14.906995,3.82307 -1.875917,0.50728 -2.250667,-0.16598 -3.762578,-6.75968 z"
     id="path1075" />
  <path
     style="fill:#000000"
     d="m 125.87711,869.25 c -4.03964,-10.34947 -7.12171,-47.50169 -5.4336,-65.4982 l 0.72679,-7.7482 3.66485,0.47243 c 2.01567,0.25983 7.71485,0.95109 12.66485,1.53613 4.95,0.58504 10.35321,1.27153 12.00714,1.52553 l 3.00714,0.46181 -0.36621,11.53621 c -0.41612,13.10859 1.20865,34.13977 3.48954,45.16901 0.84741,4.09764 1.38357,7.60744 1.19146,7.79955 C 156.47142,864.86191 128.56661,872 127.52612,872 c -0.31659,0 -1.05865,-1.2375 -1.64901,-2.75 z"
     id="path1073" />
  <path
     style="fill:#000000"
     d="m 898.86272,867.68884 c -2.55051,-1.75386 -8.2834,-5.43884 -12.73976,-8.18884 -4.45636,-2.75 -8.10709,-5.34393 -8.11272,-5.76428 -0.006,-0.42035 2.8562,-6.49535 6.35963,-13.5 6.75808,-13.51188 20.06803,-43.95621 21.14405,-48.36354 l 0.64157,-2.62782 14.15564,5.44454 c 7.7856,2.9945 14.33954,5.62843 14.5643,5.8532 1.85165,1.85165 -28.30217,70.6856 -30.83842,70.39674 -0.29536,-0.0336 -2.62379,-1.49614 -5.17429,-3.25 z"
     id="path1071" />
  <path
     style="fill:#000000"
     d="m 870.83837,850.08714 c -9.68625,-5.77593 -12.96487,-7.77638 -17.95797,-10.95704 l -5.6196,-3.57974 4.13024,-8.02518 c 2.27164,-4.41385 4.88827,-9.82518 5.81474,-12.02518 0.92647,-2.2 2.64586,-6.25 3.82087,-9 1.175,-2.75 4.19028,-10.4 6.7006,-17 2.51033,-6.6 4.71037,-12.17423 4.88899,-12.38717 0.271,-0.32307 28.16241,9.6858 29.23342,10.49046 1.51891,1.14116 -19.63441,49.82101 -26.59394,61.20026 -1.70103,2.7813 -1.83864,2.82128 -4.41735,1.28359 z"
     id="path1069" />
  <path
     style="fill:#000000"
     d="m 1383.9167,804.62349 c -0.2292,-0.20707 -4.0167,-0.63465 -8.4167,-0.95017 -9.6272,-0.69036 -20.2,-2.14242 -31,-4.25755 -8.9645,-1.75565 -28.8194,-6.45017 -29.3344,-6.93589 -0.7878,-0.74296 7.4235,-28.7687 8.5564,-29.20343 0.6874,-0.26378 9.6936,1.34833 20.0139,3.58246 18.7691,4.06314 34.0983,6.14109 45.3033,6.14109 H 1395 v 16 16 h -5.3333 c -2.9334,0 -5.5209,-0.16943 -5.75,-0.37651 z"
     id="path1067" />
  <path
     style="fill:#000000"
     d="M 1398.1388,789.10927 1397.836,773 h 7.4761 c 11.3962,0 38.6691,-4.53366 51.5507,-8.5694 6.7354,-2.11019 13.5627,-5.02064 16.765,-7.14685 2.9713,-1.97281 5.5414,-3.40621 5.7114,-3.18534 0.17,0.22087 2.9758,4.16174 6.235,8.75749 3.2592,4.59574 7.2018,10.12824 8.7614,12.29443 2.2878,3.17776 2.602,4.21989 1.6267,5.39511 -2.1693,2.61384 -25.2216,13.23134 -35.4623,16.33335 -14.4625,4.38082 -30.9025,7.05936 -47.5195,7.74225 l -14.5389,0.5975 z"
     id="path1065" />
  <path
     style="fill:#000000"
     d="m 932.5,796.27639 c -1.1,-0.27038 -2.45,-0.81608 -3,-1.21267 -0.55,-0.39658 -5.75934,-2.4383 -11.57631,-4.53715 l -10.5763,-3.81609 7.66404,-23.60524 c 4.21523,-12.98288 8.72099,-27.31774 10.01282,-31.85524 2.58762,-9.08897 2.98811,-9.37026 9.70551,-6.81688 2.07363,0.78821 7.82024,2.64906 12.77024,4.1352 4.95,1.48615 9.31062,2.8762 9.69027,3.08899 0.37966,0.21279 0.29701,1.61445 -0.18365,3.11479 -0.48067,1.50035 -2.2901,7.4529 -4.02098,13.2279 -8.37855,27.95473 -15.8649,49.03766 -17.35827,48.884 -0.62005,-0.0638 -2.02737,-0.33723 -3.12737,-0.60761 z"
     id="path1063" />
  <path
     style="fill:#000000"
     d="m 135.5,791.11 c -15.17917,-1.92849 -14.20596,-0.16693 -9.47167,-17.14422 6.33526,-22.71843 13.91845,-40.41649 21.71747,-50.6854 l 2.44524,-3.21963 5.65448,3.59053 c 3.10996,1.97479 9.10513,5.82044 13.32259,8.54589 l 7.66811,4.95535 -2.49707,3.67374 c -6.52838,9.60467 -16.66689,34.14317 -19.38736,46.92374 -1.30562,6.1337 0.25637,5.86389 -19.45179,3.36 z"
     id="path1061" />
  <path
     style="fill:#000000"
     d="m 1292,785.09169 c -20.8319,-7.32634 -46.6023,-17.95531 -49.7057,-20.50104 -0.5746,-0.47135 3.2732,-9.75782 7.6899,-18.55914 l 4.9756,-9.91514 13.2701,5.99815 c 17.737,8.0172 39.8777,16.72552 46.2575,18.19385 l 5.1776,1.19163 -2.8295,10.5 c -1.5563,5.775 -3.2983,12.4125 -3.8711,14.75 -0.7302,2.97961 -1.5531,4.23424 -2.7529,4.19728 -0.9413,-0.029 -9.1365,-2.66401 -18.2115,-5.85559 z"
     id="path1059" />
  <path
     style="fill:#000000"
     d="m 104.5,786.94431 c -2.2,-0.38819 -7.050902,-1.02171 -10.779783,-1.40784 l -6.779783,-0.70204 0.619817,-3.66721 c 1.23518,-7.30809 6.434507,-26.36694 8.413447,-30.84067 C 97.088164,747.80712 98,745.35579 98,744.87915 c 0,-3.02433 16.38495,-35.81174 20.80891,-41.64004 l 1.71611,-2.26088 8.27988,5.51088 c 4.55393,3.03099 8.51582,5.51089 8.80421,5.51089 0.28838,0 2.18181,1.2193 4.20761,2.70955 2.0258,1.49025 3.83916,2.80863 4.02967,2.92972 0.19052,0.1211 -0.97578,2.1643 -2.59177,4.54045 -8.71613,12.81617 -16.56736,31.97021 -22.26587,54.32028 l -2.80462,11 -4.84207,0.0751 c -2.66313,0.0412 -6.64206,-0.24259 -8.84206,-0.63079 z"
     id="path1057" />
  <path
     style="fill:#000000"
     d="m 898,783.02006 c -2.475,-0.98427 -8.70785,-3.38679 -13.85078,-5.33894 -5.14293,-1.95214 -9.54567,-3.74423 -9.78386,-3.98242 -0.23818,-0.23819 1.6331,-6.68034 4.15841,-14.31589 6.25297,-18.90651 8.92125,-27.29404 12.05146,-37.88281 1.4633,-4.95 2.75952,-9.11453 2.8805,-9.25451 0.12097,-0.13998 1.53043,0.16457 3.13211,0.67677 8.81176,2.8179 19.41978,6.03943 23.04327,6.99798 l 4.13111,1.09282 -5.72143,18.74347 c -7.67925,25.15737 -14.36505,45.26475 -15.01202,45.14829 -0.29082,-0.0523 -2.55377,-0.9005 -5.02877,-1.88476 z"
     id="path1055" />
  <path
     style="fill:#000000"
     d="M 1499.2452,776.73384 C 1496.1103,772.75816 1483,752.8745 1483,752.09564 c 0,-0.51289 1.5148,-1.86874 3.3663,-3.013 5.2217,-3.22721 17.4768,-16.58641 25.3203,-27.60161 6.5923,-9.25799 14.8818,-26.3346 16.8965,-34.80742 0.5355,-2.25206 1.1033,-2.7218 2.7945,-2.3117 1.1673,0.28307 7.9724,1.70953 15.1224,3.1699 7.15,1.46037 13.1163,2.76696 13.2585,2.90353 0.7395,0.71033 -6.619,20.50734 -11.2361,30.22942 -8.4879,17.87233 -17.2248,29.9779 -31.2764,43.33524 -10.4779,9.96022 -16.711,14.36956 -18.0008,12.73384 z"
     id="path1053" />
  <path
     style="fill:#000000"
     d="m 1369,767.4723 c -9.8883,-1.23444 -41.1908,-7.93045 -43.6132,-9.32942 -0.7689,-0.44409 0.099,-4.972 2.8062,-14.64288 2.1555,-7.7 4.2405,-14.32406 4.6332,-14.72013 0.3927,-0.39607 3.18,-0.0547 6.1939,0.75853 14.4952,3.91129 35.0068,6.88914 53.9799,7.83674 2.7966,0.13967 2.6605,-1.16031 2.2115,21.12486 L 1395,769 l -7.75,-0.10845 c -4.2625,-0.0597 -12.475,-0.69831 -18.25,-1.41925 z"
     id="path1051" />
  <path
     style="fill:#000000"
     d="M 1399,753.5 V 738 l 5.25,-0.0173 c 16.6235,-0.0549 33.1584,-3.35665 45.6384,-9.11333 4.6137,-2.12814 8.7056,-3.86934 9.0931,-3.86934 0.7008,0 17.0185,24.26722 17.0185,25.30936 0,1.60632 -12.8069,7.88751 -21.553,10.57075 -11.6063,3.56073 -38.8319,8.09468 -48.697,8.10965 L 1399,769 Z"
     id="path1049" />
  <path
     style="fill:#000000"
     d="m 1224.9181,756.16808 c -15.4761,-7.87977 -23.7768,-12.5195 -40.1592,-22.44721 -11.1971,-6.78543 -11.6752,-7.2102 -10.3194,-9.16798 0.7819,-1.12909 4.6268,-7.06227 8.5442,-13.18485 l 7.1225,-11.13195 13.3201,8.34423 c 7.326,4.58933 21.2219,12.4336 30.8797,17.43172 l 17.5597,9.08748 -4.536,9.70024 c -2.4949,5.33513 -5.4212,11.61274 -6.503,13.95024 -1.0819,2.3375 -2.0848,4.25 -2.2288,4.25 -0.1439,0 -6.2999,-3.07436 -13.6798,-6.83192 z"
     id="path1047" />
  <path
     style="fill:#000000"
     d="m 1314.5,756.26618 c -5.3839,-1.3509 -55.6134,-22.1574 -57.2771,-23.72585 -0.1525,-0.14369 2.6536,-6.26721 6.2356,-13.60782 3.5821,-7.34061 6.6452,-13.74362 6.807,-14.22892 0.1617,-0.48529 3.4307,0.55853 7.2643,2.3196 11.0515,5.07683 26.9541,11.40591 40.1097,15.96329 l 12.1396,4.20539 -2.3116,7.65407 c -1.2713,4.20974 -3.2657,10.91657 -4.4319,14.90407 -2.2344,7.64013 -2.685,7.98416 -8.5356,6.51617 z"
     id="path1045" />
  <path
     style="fill:#000000"
     d="m 1474.5,740.82013 c -2.75,-3.90204 -6.7049,-9.5063 -8.7887,-12.45391 l -3.7888,-5.35928 3.7888,-3.20467 c 6.2953,-5.32483 13.3356,-12.98627 17.2779,-18.80226 3.8542,-5.68603 11.0108,-20.99167 11.0108,-23.54844 0,-1.92417 0.1771,-1.90548 13.7564,1.45215 6.459,1.59703 13.025,3.19162 14.5911,3.54352 2.5084,0.56362 2.7674,0.96211 2.1754,3.34629 -1.7044,6.86433 -10.6612,25.43509 -15.5337,32.20732 -9.5289,13.2439 -26.0944,30.29278 -29.1072,29.95653 -0.2101,-0.0234 -2.632,-3.23521 -5.382,-7.13725 z"
     id="path1043" />
  <path
     style="fill:#000000"
     d="m 173,730.95776 c -2.475,-1.66852 -8.2125,-5.2968 -12.75,-8.06284 -4.5375,-2.76604 -8.25,-5.22233 -8.25,-5.45843 0,-2.14703 32.8716,-41.91887 46.54856,-56.31978 l 2.26348,-2.3833 11.60676,9.80525 11.60675,9.80524 -2.26277,2.53697 c -1.24453,1.39533 -4.11988,4.58045 -6.38966,7.07805 C 202.62827,701.98293 183,726.28737 183,728.0445 c 0,0.85316 -4.38837,5.95929 -5.11467,5.95122 -0.21193,-0.002 -2.41033,-1.36944 -4.88533,-3.03796 z"
     id="path1041" />
  <path
     style="fill:#000000"
     d="M 1236.9083,722.57911 C 1221.5729,714.80343 1193,697.66122 1193,696.23645 c 0,-0.60566 4.4129,-7.89501 11.9483,-19.73645 2.1,-3.3 4.2082,-5.92031 4.6849,-5.82291 0.4768,0.0974 7.0781,3.81759 14.6698,8.26708 7.5916,4.4495 15.3152,8.86981 17.1635,9.82291 14.9248,7.69618 26.0844,13.51982 26.3436,13.74742 0.3146,0.27631 -13.6194,28.48895 -14.0668,28.48139 -0.1338,-0.002 -7.7096,-3.78981 -16.835,-8.41678 z"
     id="path1039" />
  <path
     style="fill:#000000"
     d="m 956,728.06896 c -0.825,-0.47862 -7.2375,-2.5666 -14.25,-4.63996 -7.62402,-2.25417 -12.75,-4.27814 -12.75,-5.03427 0,-0.69549 0.48172,-2.53133 1.07048,-4.07963 1.83426,-4.82363 9.96524,-35.37517 11.87302,-44.61198 0.99931,-4.83828 2.10125,-9.0812 2.44875,-9.42871 0.69518,-0.69517 27.57249,6.54032 28.99066,7.80442 1.17862,1.05057 -13.86843,60.9641 -15.29248,60.89076 -0.32474,-0.0167 -1.26543,-0.42201 -2.09043,-0.90063 z"
     id="path1037" />
  <path
     style="fill:#000000"
     d="m 1167,722.79715 c -10.8343,-6.71464 -53,-34.92061 -53,-35.45335 0,-0.99088 14.1787,-25.33622 15.0803,-25.89345 1.0191,-0.62984 8.8645,4.17518 36.2681,22.21301 15.9275,10.48393 21.6927,14.78709 21.2738,15.87884 -0.3161,0.82368 -2.3044,4.07614 -4.4186,7.2277 -2.1141,3.15155 -5.5324,8.5426 -7.5961,11.9801 -2.0638,3.4375 -3.8322,6.24242 -3.9299,6.23315 -0.098,-0.009 -1.7526,-0.99296 -3.6776,-2.186 z"
     id="path1035" />
  <path
     style="fill:#000000"
     d="m 908.63132,713.45154 c -7.62777,-2.39556 -14.04508,-4.53196 -14.26068,-4.74756 -0.2156,-0.2156 0.21014,-2.1497 0.94608,-4.29799 0.73594,-2.14829 3.98603,-14.36849 7.22242,-27.15599 l 5.88434,-23.25 3.53826,0.0198 c 4.33792,0.0243 15.71005,1.5956 22.8031,3.15077 l 5.26483,1.15432 -0.62857,3.58755 c -0.98526,5.62334 -9.02003,37.12651 -12.00988,47.08901 -1.48531,4.9492 -3.19346,8.95514 -3.79589,8.9021 -0.60243,-0.053 -7.33624,-2.05645 -14.96401,-4.45202 z"
     id="path1033" />
  <path
     style="fill:#000000"
     d="m 135,706.84506 c -6.875,-4.4312 -12.67148,-8.21808 -12.88107,-8.41529 -0.46365,-0.43628 14.61854,-21.97961 20.25333,-28.92977 5.15107,-6.35352 23.08482,-26.93445 27.34229,-31.37825 l 3.23659,-3.37825 8.64325,7.37825 c 4.75379,4.05804 10.26657,8.78606 12.25064,10.50672 l 3.60738,3.12846 -9.45635,10.87154 c -5.20099,5.97934 -14.19028,16.29434 -19.9762,22.92221 -5.78592,6.62787 -12.54486,15.05466 -15.01986,18.7262 -2.475,3.67154 -4.725,6.66413 -5,6.65021 -0.275,-0.0139 -6.125,-3.65083 -13,-8.08203 z"
     id="path1031" />
  <path
     style="fill:#000000"
     d="m 1187.4625,693.09704 c -1.4478,-1.39583 -53.1952,-34.84128 -54.6652,-35.33128 -1.6838,-0.56125 -0.5159,-3.10585 7.9711,-17.3685 l 6.6068,-11.10275 10.5624,6.86307 c 22.9632,14.92068 45.6333,30.05306 46.9586,31.34512 1.1895,1.15963 0.2237,3.17381 -6.5231,13.60362 -4.3557,6.73335 -8.3759,12.3946 -8.9338,12.58056 -0.5578,0.18597 -1.4474,-0.0795 -1.9768,-0.58984 z"
     id="path1029" />
  <path
     style="fill:#000000"
     d="m 1105,682.21656 c -7.859,-5.14245 -33.0212,-19.51629 -42.8707,-24.48978 -8.813,-4.45007 -10.514,-6.24108 -7.8073,-8.22026 0.9058,-0.66235 1.4171,-1.43413 1.1361,-1.71506 -0.2809,-0.28094 1.5261,-5.01456 4.0156,-10.51916 2.4894,-5.5046 4.5263,-10.51775 4.5263,-11.14033 0,-0.62258 0.2974,-1.13197 0.6608,-1.13197 1.8989,0 38.3063,19.64124 47.4389,25.5926 5.8299,3.79907 11.4031,7.37376 12.3849,7.94375 1.6225,0.94196 1.1293,2.1716 -5.4147,13.5 -3.9599,6.85501 -7.5081,12.75962 -7.8849,13.12136 -0.3767,0.36174 -3.16,-0.96177 -6.185,-2.94115 z"
     id="path1027" />
  <path
     style="fill:#000000"
     d="m 1546.6352,679.43049 c -7.6256,-1.8297 -13.9775,-3.46258 -14.1152,-3.62861 -0.1377,-0.16603 0.371,-4.35188 1.1305,-9.30188 1.7984,-11.72105 0.9263,-24.44877 -2.4326,-35.5 -2.169,-7.13636 -3.4614,-9.48533 -8.0556,-14.64187 -6.0304,-6.76846 -15.5694,-12.71153 -26.5591,-16.54695 -3.6318,-1.26749 -6.6032,-2.62154 -6.6032,-3.00898 0,-0.38745 2.9757,-6.98874 6.6126,-14.66953 l 6.6126,-13.96507 4.6374,1.974 c 32.0489,13.64218 49.2989,31.32502 56.3021,57.71487 2.5008,9.42373 3.0056,30.15682 0.9896,40.64353 -1.9706,10.24996 -3.1403,14.51555 -3.9428,14.37861 -0.3913,-0.0668 -6.9507,-1.61842 -14.5763,-3.44812 z"
     id="path1025" />
  <path
     style="fill:#000000"
     d="M 214.43381,665.22077 203.36762,655.5 216.93381,639.97279 C 224.39522,631.43282 234.325,620.00067 239,614.56801 c 4.675,-5.43265 9.66614,-11.23185 11.09143,-12.88711 l 2.59143,-3.00957 12.65857,8.85607 c 6.96221,4.87084 12.65606,9.10729 12.653,9.41434 -0.0152,1.52102 -15.87219,20.21704 -32.49443,38.31219 -5.5,5.98736 -11.73433,12.8796 -13.85407,15.31609 -2.11973,2.43649 -4.36973,4.41683 -5,4.40075 -0.63026,-0.0161 -6.12571,-4.40358 -12.21212,-9.75 z"
     id="path1023" />
  <path
     style="fill:#000000"
     d="m 1512.3261,671.65335 c -7.7956,-1.73434 -14.3993,-3.38206 -14.6749,-3.6616 -0.2756,-0.27953 0.1332,-3.20453 0.9083,-6.5 3.6787,-15.64034 -0.4741,-23.44639 -15.809,-29.71625 -4.2628,-1.74291 -7.7505,-3.48231 -7.7505,-3.86533 0,-0.68686 11.8167,-26.0602 12.4154,-26.6589 0.1697,-0.16969 3.6711,0.98628 7.7809,2.56882 18.6705,7.18936 27.7935,15.34956 32.0638,28.67991 3.0887,9.64195 4.0502,20.66557 2.7185,31.16897 -1.0946,8.63285 -1.7779,11.37853 -2.796,11.23438 -0.3754,-0.0532 -7.0608,-1.51566 -14.8565,-3.25 z"
     id="path1021" />
  <path
     style="fill:#000000"
     d="m 1122.6976,652.4925 c -3.1383,-1.89049 -8.9667,-5.63225 -12.9518,-8.31503 -6.3352,-4.26475 -37.7416,-21.10135 -41.6934,-22.35132 -1.2307,-0.38927 -1.2507,-0.93308 -0.1339,-3.6293 0.7318,-1.76693 1.7803,-2.88298 2.3675,-2.5201 0.6481,0.40053 0.816,0.0315 0.4362,-0.95839 -0.3455,-0.90018 0.8609,-4.60898 2.7369,-8.41404 1.845,-3.74238 3.6175,-7.92932 3.9389,-9.30432 1.335,-5.71168 1.5924,-5.70169 14.7571,0.57251 17.7662,8.46723 50.5791,27.57129 51.5064,29.98763 0.3239,0.84426 -13.0668,25.86145 -15.0702,28.15474 -0.1033,0.11819 -2.7554,-1.33188 -5.8937,-3.22238 z"
     id="path1019" />
  <path
     style="fill:#000000"
     d="m 191.48075,645.6997 c -3.86059,-3.40984 -8.97902,-7.86574 -11.37429,-9.90202 l -4.35504,-3.70231 14.99778,-16.29769 c 15.045,-16.34898 27.81653,-30.91188 30.62158,-34.91666 0.82592,-1.17917 2.10373,-1.91291 2.83958,-1.63054 2.24471,0.86138 23.26734,15.80151 23.61473,16.78225 0.41618,1.17498 -3.94458,6.48912 -27.68866,33.74213 -10.64996,12.22383 -19.87496,22.2025 -20.5,22.17484 -0.62504,-0.0277 -4.29509,-2.84017 -8.15568,-6.25 z"
     id="path1017" />
  <path
     style="fill:#000000"
     d="m 1031.8747,646.01175 c -15.4836,-6.61513 -34.29879,-13.49937 -40.70256,-14.89257 -2.38033,-0.51787 -4.58176,-1.19547 -4.89207,-1.50578 -0.95466,-0.95466 7.13671,-29.8143 8.50992,-30.35249 1.37749,-0.53987 28.15961,8.41023 44.71001,14.94128 15.4193,6.08469 21.5017,8.96828 21.482,10.18437 -0.01,0.61239 -2.6884,6.96344 -5.9523,14.11344 -4.2185,9.24113 -6.4541,13.04813 -7.732,13.16646 -0.9887,0.0915 -7.9291,-2.45307 -15.423,-5.65471 z"
     id="path1015" />
  <path
     style="fill:#000000"
     d="m 968,624.95252 c -6.325,-1.56105 -20.275,-4.73433 -31,-7.05173 -10.725,-2.3174 -19.88822,-4.55382 -20.36271,-4.96983 -0.78531,-0.68852 0.76155,-12.18152 3.45645,-25.68096 0.85701,-4.29301 1.42317,-5.25 3.10592,-5.25 4.07576,0 66.8076,14.71284 68.14099,15.98148 0.79106,0.75264 -0.81784,7.64466 -5.43192,23.26852 -2.35463,7.9731 -1.40276,7.77631 -17.90873,3.70252 z"
     id="path1013" />
  <path
     style="fill:#000000"
     d="m 1464,625.04522 c -3.025,-1.02936 -12.025,-3.51575 -20,-5.52533 -7.975,-2.00957 -16.3,-4.34287 -18.5,-5.18511 -16.2445,-6.21897 -30.505,-14.97255 -42.3952,-26.0237 -6.7107,-6.23716 -7.276,-7.05553 -6.1085,-8.84217 0.7076,-1.08288 6.039,-6.16357 11.8474,-11.29042 l 10.5609,-9.32154 7.0477,7.46748 c 11.761,12.46153 23.1445,18.01549 53.5477,26.12583 16.4902,4.39891 24,6.98072 24,8.25101 0,1.80701 -12.5477,26.29329 -13.4551,26.25713 -0.5747,-0.0229 -3.5199,-0.88383 -6.5449,-1.91318 z"
     id="path1011" />
  <path
     style="fill:#000000"
     d="m 1050,613.89795 c -10.0814,-4.27704 -38.7011,-14.45291 -54.73511,-19.46135 -0.12931,-0.0404 2.01915,-6.82056 4.77431,-15.06705 l 5.0095,-14.99361 17.2256,5.72262 c 17.8323,5.92415 53.8647,18.70711 54.4878,19.33028 0.2703,0.27031 -12.6357,29.84164 -13.1515,30.13384 -0.061,0.0344 -6.1856,-2.51468 -13.6106,-5.66473 z"
     id="path1009" />
  <path
     style="fill:#000000"
     d="m 267.7363,604.04996 -12.76369,-8.84225 4.83874,-5.85383 c 9.40524,-11.37832 22.20465,-37.59631 27.14533,-55.60384 0.71678,-2.6125 1.47715,-4.75 1.68971,-4.75 0.21255,0 5.21657,1.32147 11.12004,2.93659 5.90346,1.61513 12.69065,3.44447 15.08263,4.06522 4.25955,1.1054 4.33591,1.19869 3.71029,4.5335 -1.04175,5.553 -8.21208,23.80901 -13.45442,34.25559 -6.34904,12.65194 -22.54163,38.27488 -24.10493,38.14333 -0.275,-0.0231 -6.24366,-4.02108 -13.2637,-8.88431 z"
     id="path1007" />
  <path
     style="fill:#000000"
     d="m 909.95124,611.63328 c -0.24818,-0.23975 -2.70124,-0.68201 -5.45124,-0.9828 -8.31232,-0.9092 -56.77878,-8.59589 -57.26502,-9.08213 -0.65325,-0.65325 4.08011,-32.49161 4.76733,-32.06688 0.31608,0.19535 15.384,2.87658 33.48427,5.95829 18.10028,3.08171 33.08856,5.78208 33.3073,6.00082 0.21874,0.21874 -0.88906,7.06213 -2.46178,15.20753 -2.11436,10.9507 -3.25949,14.88685 -4.39456,15.10544 -0.84429,0.1626 -1.73812,0.0995 -1.9863,-0.14027 z"
     id="path1005" />
  <path
     style="fill:#000000"
     d="m 826.84253,598.5092 c -0.26994,-0.26994 -12.80869,-2.3087 -27.8639,-4.53057 -15.0552,-2.22187 -27.56692,-4.23359 -27.80381,-4.47048 -0.23689,-0.23689 0.62631,-7.19813 1.91823,-15.46943 C 775.09513,561.22079 775.70266,559 777.20715,559 c 2.45833,0 61.20011,9.14101 61.69697,9.60088 0.22227,0.20572 -0.56523,6.12574 -1.75,13.15561 C 835.96936,588.78635 835,595.542 835,596.76903 835,598.68899 834.46562,599 831.16667,599 c -2.10834,0 -4.0542,-0.22086 -4.32414,-0.4908 z"
     id="path1003" />
  <path
     style="fill:#000000"
     d="m 1481.0841,594.34786 c -1.8787,-0.81894 -10.7746,-3.45274 -19.7685,-5.85289 -29.596,-7.89804 -42.4543,-14.23611 -52.8091,-26.0304 l -5.7575,-6.55785 4.3463,-3.70336 c 2.3904,-2.03685 7.478,-6.44872 11.3056,-9.80417 l 6.9593,-6.10081 6.0699,4.9306 c 8.5353,6.93324 13.3159,9.12846 29.6992,13.63768 16.962,4.66848 37.0375,11.026 38.1743,12.08904 1.0362,0.96901 -12.2694,29.07075 -13.7132,28.96273 -0.5997,-0.0449 -2.6276,-0.75162 -4.5063,-1.57057 z"
     id="path1001" />
  <path
     style="fill:#000000"
     d="m 991.81292,593.47958 c -0.79519,-0.79518 -64.97847,-15.46719 -67.69073,-15.47379 -2.22681,-0.005 -2.33577,-0.26864 -1.71592,-4.14499 0.89956,-5.62555 6.59967,-26.16764 7.53622,-27.15909 0.62705,-0.6638 70.70391,15.61132 71.75821,16.66562 0.5573,0.55733 -7.9958,30.63267 -8.71163,30.63267 -0.36065,0 -0.88992,-0.23419 -1.17615,-0.52042 z"
     id="path999" />
  <path
     style="fill:#000000"
     d="m 239.15064,584.49694 c -6.79216,-4.59928 -12.57416,-8.58712 -12.84889,-8.86186 -0.27474,-0.27474 1.56997,-3.39967 4.09936,-6.94429 2.52939,-3.54463 4.59889,-6.88944 4.59889,-7.43292 0,-0.54348 1.0125,-2.2747 2.25,-3.84716 2.35171,-2.98824 7.03613,-11.12454 8.8726,-15.41071 0.58915,-1.375 1.67267,-3.85 2.40783,-5.5 0.73516,-1.65 2.3448,-5.925 3.57698,-9.5 1.23217,-3.575 2.34964,-6.65007 2.48326,-6.83348 0.13363,-0.18341 3.66041,0.60409 7.8373,1.75 4.17689,1.14591 8.36813,2.08348 9.31386,2.08348 2.2737,0 12.25817,4.16123 12.25817,5.10884 0,0.40745 -2.08486,6.73368 -4.63303,14.0583 -6.21703,17.87064 -15.91416,35.27804 -27.30338,49.0125 -0.30998,0.3738 -6.1208,-3.08341 -12.91295,-7.6827 z"
     id="path997" />
  <path
     style="fill:#000000"
     d="m 761.60691,588.26994 c -11.26822,-1.67635 -61.8518,-10.1841 -62.10215,-10.44508 -0.32818,-0.34213 5.32376,-29.98671 5.80985,-30.47281 0.55538,-0.55537 66.64779,10.22056 67.33261,10.97814 0.0844,0.0934 -0.64443,4.89481 -1.61968,10.66981 -0.97524,5.775 -2.08297,12.6375 -2.46163,15.25 -0.72607,5.00952 -0.64028,4.95996 -6.959,4.01994 z"
     id="path995" />
  <path
     style="fill:#000000"
     d="m 689.5,576.42688 c -3.3,-0.64323 -10.275,-1.96003 -15.5,-2.92621 -13.50214,-2.49675 -22.93435,-5.0431 -35.12288,-9.4819 -8.4661,-3.08317 -26.04176,-11.04587 -27.71524,-12.55647 -0.25487,-0.23006 15.04979,-24.87403 16.28272,-26.21888 0.12937,-0.14112 5.36977,2.16459 11.64531,5.1238 6.27555,2.95921 15.01009,6.54208 19.41009,7.96193 7.23005,2.3331 35.99172,7.67085 41.33321,7.67085 1.19173,0 2.16679,0.37979 2.16679,0.84398 0,1.25816 -5.96524,30.47384 -6.2527,30.62359 -0.13602,0.0708 -2.9473,-0.39746 -6.2473,-1.04069 z"
     id="path993" />
  <path
     style="fill:#000000"
     d="M 914.91667,576.60989 C 914.6875,576.39532 900.55,573.86122 883.5,570.97854 c -17.05,-2.88269 -31.10962,-5.32925 -31.24359,-5.43682 -0.13398,-0.10756 0.77703,-6.91095 2.02445,-15.11864 L 856.5489,535.5 l 3.47555,0.30505 c 1.91155,0.16778 9.0865,1.20948 15.94432,2.3149 6.85782,1.10541 20.73976,3.30008 30.84875,4.87704 10.109,1.57695 18.55032,3.03752 18.7585,3.2457 0.3277,0.3277 -3.5598,22.15756 -5.07664,28.50731 -0.36557,1.53035 -1.27769,2.25 -2.85177,2.25 -1.27285,0 -2.50178,-0.17555 -2.73094,-0.39011 z"
     id="path991" />
  <path
     style="fill:#000000"
     d="m 1365.5701,568.44177 c -16.1495,-23.10205 -28.0658,-52.57115 -33.4196,-82.64668 -0.8092,-4.5457 -0.7498,-4.72122 1.756,-5.18686 6.1338,-1.13985 28.178,-3.84874 28.4452,-3.49548 0.1611,0.21299 1.5464,6.46225 3.0784,13.88725 4.6019,22.30271 16.3023,48.06251 27.3096,60.1253 l 2.3955,2.6253 -11.6589,10.3747 c -6.4125,5.70609 -12.0184,10.50821 -12.4577,10.67138 -0.4393,0.16318 -2.8911,-2.69653 -5.4485,-6.35491 z"
     id="path989" />
  <path
     style="fill:#000000"
     d="m 806,559.226 c -16.225,-2.51327 -29.59259,-4.62237 -29.70576,-4.68688 -0.11317,-0.0645 0.39302,-3.69972 1.12487,-8.07822 0.73184,-4.37849 1.89662,-11.42521 2.5884,-15.65937 1.22825,-7.51775 1.31922,-7.6874 3.87513,-7.22677 2.6018,0.4689 31.50419,5.06728 50.61736,8.05323 5.5,0.85924 10.09089,1.64784 10.20199,1.75245 0.21575,0.20317 -3.44355,24.59691 -4.25572,28.36956 -0.61442,2.85408 1.06988,2.97749 -34.44627,-2.524 z"
     id="path987" />
  <path
     style="fill:#000000"
     d="m 760,551.87387 c -5.775,-1.0516 -20.13039,-3.47131 -31.90086,-5.37714 -11.77048,-1.90582 -21.59607,-3.66033 -21.83465,-3.89891 -0.23858,-0.23858 0.55144,-5.08319 1.75559,-10.7658 1.20415,-5.68261 2.39455,-11.45702 2.64532,-12.83202 1.33428,-7.31594 1.19135,-7.11318 4.61366,-6.54465 14.77217,2.454 52.12242,8.46837 55.72094,8.97254 7.36525,1.0319 7.31535,0.92236 5.54075,12.16356 -2.49365,15.796 -3.60002,20.41604 -4.86165,20.30149 -0.6485,-0.0589 -5.9041,-0.96746 -11.6791,-2.01907 z"
     id="path985" />
  <path
     style="fill:#000000"
     d="m 1396.2871,548.73751 c -10.723,-11.77237 -22.3738,-37.22334 -26.9109,-58.78651 -1.4973,-7.11601 -2.5005,-13.16005 -2.2293,-13.43119 0.5006,-0.50068 26.0904,-4.50126 28.8691,-4.51326 1.0948,-0.005 2.1567,2.70264 3.8218,9.74345 4.4538,18.83321 9.7075,31.82553 17.6184,43.57037 l 3.9204,5.82037 -4.9383,4.16781 c -2.7161,2.2923 -7.1883,6.21276 -9.9383,8.71214 -8.0823,7.34567 -7.8965,7.25988 -10.2129,4.71682 z"
     id="path983" />
  <path
     style="fill:#000000"
     d="m 601.5,545.79714 c -14.49489,-9.6953 -31.5948,-26.06673 -42.11312,-40.31905 -6.98575,-9.46568 -17.79811,-26.40019 -17.22313,-26.97517 0.22128,-0.22129 6.46247,-3.80763 13.86929,-7.96965 11.84421,-6.65546 13.58746,-7.36723 14.46696,-5.90685 10.27636,17.06342 19.991,29.70741 30.65217,39.89504 11.57521,11.06108 13.4292,12.5713 15.63701,12.73761 1.13975,0.0859 1.8521,0.51233 1.58302,0.94771 -0.26908,0.43539 1.11142,1.73603 3.06779,2.89032 1.95637,1.15428 3.36051,2.41668 3.12031,2.80533 -3.93127,6.36093 -15.8657,24.76527 -16.37534,25.25277 -0.37673,0.36036 -3.38496,-1.15077 -6.68496,-3.35806 z"
     id="path981" />
  <path
     style="fill:#000000"
     d="m 683.5,539.45053 c -10.45,-1.77221 -22.21264,-4.40153 -26.1392,-5.84293 -8.77144,-3.21992 -25.95529,-11.13581 -26.64286,-12.27326 -0.37539,-0.62102 13.72299,-23.94655 15.83405,-26.19717 0.18719,-0.19956 4.07706,1.22936 8.64417,3.17537 11.41614,4.86432 31.16238,10.26381 40.30384,11.02085 1.65,0.13664 5.39857,0.63029 8.33016,1.09699 4.76742,0.75896 5.27035,1.07137 4.76366,2.95908 -0.31157,1.1608 -1.47688,7.06054 -2.58957,13.11054 -1.11269,6.05 -2.35633,12.16387 -2.76366,13.58637 L 702.5,542.67273 Z"
     id="path979" />
  <path
     style="fill:#000000"
     d="m 315,532.84355 c -1.925,-0.53145 -8.52626,-2.3348 -14.66946,-4.00746 l -11.16945,-3.04121 1.47682,-4.14744 c 1.85569,-5.21143 5.94501,-33.85589 7.36734,-51.60596 0.59315,-7.40218 1.22548,-13.60554 1.40518,-13.78524 0.52024,-0.52024 29.49224,3.3131 30.17115,3.992 0.74364,0.74364 -2.09863,32.378 -4.15561,46.25176 -2.23543,15.07735 -4.80608,26.82496 -5.92597,27.08109 -0.55,0.12579 -2.575,-0.2061 -4.5,-0.73754 z"
     id="path977" />
  <path
     style="fill:#000000"
     d="M 989.66998,526.54405 973.83996,523.5 974.31212,520 c 0.25968,-1.925 1.97052,-17.11114 3.80186,-33.74698 2.82257,-25.64018 3.56245,-30.18322 4.85786,-29.82838 0.84049,0.23023 8.00058,1.21674 15.91132,2.19225 l 14.38314,1.77365 -0.5966,7.55473 c -1.6892,21.39209 -2.916,33.50756 -4.3088,42.55473 -0.8467,5.5 -1.8368,12.04482 -2.2002,14.54405 l -0.6607,4.54404 z"
     id="path975" />
  <path
     style="fill:#000000"
     d="m 278,522.96963 c -3.575,-0.97956 -10.15735,-2.75787 -14.62744,-3.9518 l -8.12744,-2.17079 0.86804,-3.67352 C 257.22384,508.47313 263,460.78292 263,456.3131 c 0,-2.18443 0.5697,-3.59448 1.6142,-3.9953 1.39702,-0.53608 29.39669,2.3771 30.17139,3.13913 0.56839,0.55909 -1.91054,27.37837 -3.83986,41.54307 -1.90274,13.96962 -4.62473,26.71514 -5.85478,27.41461 -0.32502,0.18482 -3.51595,-0.46542 -7.09095,-1.44498 z"
     id="path973" />
  <path
     style="fill:#000000"
     d="m 960,521.39262 c -4.125,-0.77913 -10.57876,-2.1448 -14.34169,-3.0348 -6.56974,-1.55388 -6.81981,-1.72233 -6.29118,-4.23801 1.47429,-7.01594 6.63449,-50.16732 6.65122,-55.61981 0.0208,-6.77554 -0.0262,-6.76056 15.26288,-4.86397 7.49618,0.92989 14.16312,2.02056 14.81544,2.42372 0.90064,0.55662 0.53452,6.95418 -1.52153,26.58663 -3.46696,33.1048 -4.54118,40.37704 -5.9467,40.25823 -0.62064,-0.0525 -4.50344,-0.73286 -8.62844,-1.51199 z"
     id="path971" />
  <path
     style="fill:#000000"
     d="m 621.94851,516.53516 c -6.98426,-3.6394 -28.57081,-25.43634 -36.67769,-37.03516 -6.59092,-9.42987 -11.80176,-18.34639 -11.09058,-18.97763 2.08194,-1.84795 26.31605,-14.5335 26.53122,-13.88799 1.08232,3.24695 13.27356,20.18853 18.94219,26.32303 5.92012,6.40667 20.40381,18.22841 23.66469,19.31537 1.06546,0.35515 -14.96739,26.77192 -16.19302,26.68066 -0.34392,-0.0256 -2.67349,-1.11384 -5.17681,-2.41828 z"
     id="path969" />
  <path
     style="fill:#000000"
     d="m 1329.611,472.75 c -2.8781,-19.85485 -4.0042,-51.07777 -2.4976,-69.25 1.4172,-17.09342 -0.8044,-15.48831 17.4039,-12.57397 l 15.5874,2.49485 -0.6861,4.03956 c -1.8471,10.87621 -1.9628,31.54192 -0.2782,49.68907 0.9522,10.25723 2.0352,20.26973 2.4067,22.25 0.5062,2.69838 0.3344,3.60441 -0.6858,3.61613 -0.7487,0.009 -7.6483,0.9086 -15.3325,2 -7.6841,1.0914 -14.2705,1.98436 -14.6364,1.98436 -0.3659,0 -0.9425,-1.9125 -1.2814,-4.25 z"
     id="path967" />
  <path
     style="fill:#000000"
     d="m 538.9716,473.66365 c -5.24941,-8.10331 -17.16744,-36.24849 -24.46162,-57.76767 l -4.27229,-12.60401 14.59486,-5.59895 c 8.02717,-3.07942 14.64144,-5.50761 14.69837,-5.39598 0.0569,0.11163 3.18619,8.52796 6.95391,18.70296 3.76772,10.175 10.14997,25.13188 14.18279,33.2375 4.03281,8.10563 7.32421,15.08063 7.31423,15.5 -0.01,0.41938 -3.94749,2.88079 -8.75,5.46981 -4.80252,2.58902 -11.01037,6.03766 -13.79523,7.66364 l -5.06338,2.95634 z"
     id="path965" />
  <path
     style="fill:#000000"
     d="m 1365.5018,468.25 c -2.1741,-11.31172 -3.989,-40.55741 -3.3341,-53.72746 0.9319,-18.73945 1.3271,-20.66167 4.129,-20.07906 1.2118,0.25199 8.0533,1.43947 15.2033,2.63886 l 13,2.1807 0.039,26.61848 c 0.024,16.37691 0.5165,29.46044 1.2802,34.00491 0.6828,4.06254 1.1154,7.50296 0.9612,7.64537 -0.3312,0.3061 -27.7591,4.47415 -29.4189,4.47062 -0.6263,-10e-4 -1.4631,-1.68992 -1.8595,-3.75242 z"
     id="path963" />
  <path
     style="fill:#000000"
     d="M 565.35061,444.18335 C 559.46033,432.89328 544,394.52578 544,391.19809 c 0,-0.51211 3.7125,-2.30681 8.25,-3.98823 4.5375,-1.68142 11.02675,-4.16904 14.42055,-5.52805 l 6.17054,-2.47092 4.64914,13.64456 c 4.62222,13.56555 11.71452,30.51736 18.14498,43.36959 3.66325,7.32155 3.80638,7.77496 2.45432,7.77496 -0.82026,0 -4.14718,1.78468 -20.59477,11.0478 l -5.00523,2.8189 z"
     id="path961" />
  <path
     style="fill:#000000"
     d="m 313.7856,455.07569 c -7.54292,-0.91914 -13.96188,-1.91864 -14.26436,-2.22111 -0.30247,-0.30248 0.35674,-7.481 1.46493,-15.95227 1.10818,-8.47127 2.7109,-21.25231 3.5616,-28.40231 2.04935,-17.22458 3.48524,-24.49778 4.83887,-24.51031 2.0028,-0.0185 28.09271,6.30695 28.90344,7.00763 0.43454,0.37556 0.2958,2.88836 -0.3083,5.584 -1.30656,5.83013 -3.62384,22.12899 -4.53802,31.91868 -2.10156,22.50507 -2.96703,27.97546 -4.44734,28.11042 -0.82303,0.075 -7.6679,-0.61559 -15.21082,-1.53473 z"
     id="path959" />
  <path
     style="fill:#000000"
     d="m 995.27059,455.05349 c -6.72617,-0.92344 -12.46999,-1.91958 -12.76404,-2.21363 -0.29405,-0.29405 0.73073,-14.4388 2.27729,-31.43278 2.36747,-26.01435 3.06346,-30.94659 4.40329,-31.20462 1.6165,-0.31131 28.87387,2.48925 29.31777,3.01225 0.1332,0.1569 -0.9299,14.57277 -2.3625,32.03527 l -2.6046,31.75 -3.0189,-0.13374 c -1.6604,-0.0736 -8.5221,-0.8893 -15.24831,-1.81275 z"
     id="path957" />
  <path
     style="fill:#000000"
     d="m 279.23646,451.0401 c -7.84494,-0.95361 -14.52562,-1.99592 -14.84594,-2.31624 -0.32032,-0.32033 -0.0856,-5.22673 0.52156,-10.90313 0.60717,-5.6764 1.31633,-12.57073 1.5759,-15.32073 1.13356,-12.0096 5.87301,-42.67119 7.08334,-45.82525 0.404,-1.05281 3.65595,-0.59029 15.55171,2.21189 l 15.0409,3.54306 -0.55341,3.03515 c -0.30438,1.66933 -1.03649,7.08515 -1.62691,12.03515 -0.59042,4.95 -2.15096,17.1 -3.46787,27 -1.3169,9.9 -2.68891,20.3625 -3.04889,23.25 -0.35999,2.8875 -0.9498,5.19914 -1.31069,5.13697 -0.36089,-0.0622 -7.07475,-0.89326 -14.9197,-1.84687 z"
     id="path955" />
  <path
     style="fill:#000000"
     d="m 962.5,450.61835 c -8.25,-1.0349 -15.10283,-1.96273 -15.22851,-2.06184 -0.21702,-0.17114 2.8978,-39.87684 4.33868,-55.30651 0.60657,-6.49553 0.89623,-7.249 2.78343,-7.24037 2.72898,0.0125 28.9084,2.93417 29.11958,3.24983 0.20531,0.30689 -5.17325,58.56558 -5.65385,61.24054 -0.35824,1.99393 -0.40484,1.99429 -15.35933,0.11835 z"
     id="path953" />
  <path
     style="fill:#000000"
     d="M 507.90807,397.32276 C 504.08465,387.49124 498,370.97408 498,370.42669 498,368.58986 488.42295,351.00177 485.44164,347.36348 483.54874,345.05344 482,342.77935 482,342.30994 c 0,-0.91186 23.97782,-19.94985 24.6922,-19.6052 2.26666,1.09356 10.70536,14.16555 15.36116,23.79526 5.35039,11.06634 15.96659,38.89725 15.93156,41.76543 -0.0118,0.9634 -21.67514,9.99215 -27.73041,11.55733 -0.68678,0.17752 -1.74267,-0.94748 -2.34644,-2.5 z"
     id="path951" />
  <path
     style="fill:#000000"
     d="m 1381.5,393.92226 c -6.05,-1.01053 -12.475,-2.10417 -14.2777,-2.43031 l -3.2778,-0.59298 0.6338,-5.19949 c 1.0397,-8.53072 9.8752,-38.70764 13.3802,-45.69948 5.4788,-10.92919 13.2362,-24 14.2437,-24 0.9043,0 20.6986,11.71585 25.6293,15.16942 l 2.3153,1.62167 -3.4324,4.85446 c -9.2082,13.02315 -15.4827,27.91088 -19.2268,45.62037 -1.3682,6.47125 -2.4876,11.98375 -2.4876,12.25 0,0.63336 -0.5692,0.56617 -13.5,-1.59366 z"
     id="path949" />
  <path
     style="fill:#000000"
     d="m 1002.5,387.96542 c -7.7,-0.98782 -14.1792,-1.83415 -14.39822,-1.88073 -1.6542,-0.3518 3.42588,-35.2897 7.97901,-54.87502 2.58948,-11.13867 3.35921,-13.21127 4.75441,-12.80199 0.9157,0.26859 7.5076,2.11703 14.6488,4.10763 7.1412,1.99061 13.1184,3.7538 13.2828,3.9182 0.1644,0.1644 -0.8244,5.87161 -2.1974,12.6827 -1.3729,6.81108 -3.4163,19.58379 -4.5407,28.38379 -2.7567,21.57411 -2.939,22.51785 -4.324,22.38074 -0.6626,-0.0656 -7.5047,-0.92749 -15.2047,-1.91532 z"
     id="path947" />
  <path
     style="fill:#000000"
     d="m 1354.9167,389.5919 c -0.2292,-0.22445 -5.5327,-1.15909 -11.7855,-2.07697 -14.842,-2.17872 -14.2474,-1.87627 -13.5049,-6.87001 2.4952,-16.78064 8.7049,-38.54523 14.8775,-52.14492 4.3435,-9.56974 17.0382,-30.5 18.4989,-30.5 0.9498,0 22.0315,12.76927 23.7311,14.37405 0.9675,0.91355 0.1326,2.99491 -3.8693,9.64544 -2.8067,4.66428 -6.7941,12.13638 -8.861,16.60466 -3.9743,8.59178 -12.994,39.06154 -13.0172,43.97346 -0.024,5.16336 -1.0636,7.40239 -3.4363,7.40239 -1.2192,0 -2.4042,-0.18364 -2.6333,-0.4081 z"
     id="path945" />
  <path
     style="fill:#000000"
     d="m 325.5,385.08331 c -6.05,-1.48912 -12.20847,-3.01834 -13.6855,-3.39827 l -2.6855,-0.69077 1.87614,-6.74713 C 317.64742,350.35962 323.07527,336.76683 330.2711,326 c 3.15208,-4.71631 12.6558,-15 13.86234,-15 0.75617,0 19.1645,20.57423 19.67328,21.988 0.16869,0.46876 -1.7746,3.67956 -4.31843,7.13511 -7.51268,10.20525 -15.4882,28.67432 -18.62355,43.12689 -1.21207,5.5871 -0.47241,5.49884 -15.36474,1.83331 z"
     id="path943" />
  <path
     style="fill:#000000"
     d="M 539.03616,377.55724 C 531.8207,355.31622 522.3825,335.06995 515.00172,326 c -2.01406,-2.475 -3.94958,-4.99719 -4.30115,-5.60487 -0.36733,-0.63493 4.13279,-4.88384 10.58011,-9.98951 6.17062,-4.88654 11.36932,-9.22685 11.55265,-9.64512 0.18334,-0.41828 0.69131,-0.7605 1.12884,-0.7605 1.87191,0 12.96985,16.44234 18.56142,27.5 7.51912,14.86948 20.65654,47.8179 19.44329,48.76342 -0.25678,0.20013 -7.03712,2.83598 -15.06741,5.85747 l -14.60053,5.4936 z"
     id="path941" />
  <path
     style="fill:#000000"
     d="m 967.5,384.09528 -14,-1.60681 0.26324,-6.49424 c 0.53756,-13.26174 8.86229,-64.9531 10.76729,-66.85809 0.2187,-0.21871 2.10131,0.0543 4.18356,0.6067 2.08225,0.55239 8.51091,2.24685 14.28591,3.76546 5.775,1.51862 10.86196,3.08496 11.30435,3.48077 0.4424,0.3958 -0.32373,5.17268 -1.7025,10.61528 -2.99787,11.83385 -7.33693,38.1009 -8.24465,49.91004 -0.40544,5.2746 -1.06944,8.42925 -1.75473,8.33666 -0.60636,-0.0819 -7.40247,-0.87202 -15.10247,-1.75577 z"
     id="path939" />
  <path
     style="fill:#000000"
     d="m 291.5,377.09405 c -6.05,-1.49503 -12.29148,-3.04991 -13.86995,-3.4553 -2.73694,-0.7029 -2.83921,-0.93175 -2.20671,-4.93791 1.56169,-9.89154 13.52428,-43.78326 17.49352,-49.56165 0.99709,-1.45155 3.96659,-6.18432 6.59887,-10.51725 5.01448,-8.25419 18.2954,-24.88868 19.48394,-24.40383 0.38006,0.15504 5.51975,5.44739 11.42154,11.76078 l 10.73051,11.47889 -5.07805,4.84413 c -6.38073,6.08678 -9.58662,10.75313 -15.5379,22.61623 -4.40784,8.78647 -10.60351,26.35048 -13.78541,39.0801 -0.82341,3.29417 -1.9508,5.56154 -2.81235,5.65614 -0.79091,0.0868 -6.38801,-1.0653 -12.43801,-2.56033 z"
     id="path937" />
  <path
     style="fill:#000000"
     d="m 475.16103,334.35597 c -9.8539,-10.14121 -23.02135,-16.64378 -37.77756,-18.65595 L 429,314.55684 v -4.62286 c 0,-2.54257 0.29338,-9.41786 0.65197,-15.27842 L 430.30393,284 l 4.59804,0.0175 c 7.45707,0.0283 21.07576,2.64467 28.59803,5.49411 7.85738,2.97638 19.10781,9.53079 27.67576,16.12368 5.59658,4.30646 12.82793,12.18491 12.82051,13.96774 -0.002,0.49336 -2.7965,3.14701 -6.20988,5.89701 -3.41338,2.75 -8.4742,7.12453 -11.24627,9.72117 -2.77206,2.59664 -5.26512,4.70053 -5.54012,4.6753 -0.275,-0.0252 -2.90254,-2.51845 -5.83897,-5.5405 z"
     id="path935" />
  <path
     style="fill:#000000"
     d="m 356.09052,320.60202 -10.20606,-11.50284 4.14002,-3.74026 c 14.30103,-12.92013 35.90767,-20.62013 61.76287,-22.01056 l 12.28734,-0.66079 -0.28734,15.53704 -0.28735,15.53705 -5,0.61048 c -2.75,0.33576 -7.15647,0.61439 -9.79216,0.61917 -12.65314,0.0229 -31.71761,6.8837 -39.30955,14.14638 l -3.1017,2.96718 z"
     id="path933" />
  <path
     style="fill:#000000"
     d="m 1408.4654,321.86147 c -7.131,-4.4762 -13.1688,-8.31705 -13.4173,-8.53523 -1.1103,-0.9747 29.8285,-30.65473 42.6758,-40.93947 7.8232,-6.26272 14.6032,-11.38677 15.0667,-11.38677 0.7052,0 13.8872,15.49107 17.9332,21.07451 1.0687,1.47471 -0.1994,2.82775 -10,10.66983 -13.6735,10.94108 -26.5285,22.99382 -33.2238,31.15018 -2.75,3.35013 -5.2406,6.09437 -5.5346,6.09831 -0.294,0.004 -6.369,-3.65517 -13.5,-8.13136 z"
     id="path931" />
  <path
     style="fill:#000000"
     d="m 1014.1218,318.96609 c -7.358,-2.13905 -13.5244,-4.03532 -13.703,-4.21394 -0.76889,-0.76891 5.7454,-20.36421 11.0263,-33.16732 5.5511,-13.45828 8.8951,-18.97487 18.3514,-30.27433 l 4.3431,-5.18951 11.9302,10.06075 c 6.5616,5.53341 11.9302,10.205 11.9302,10.38131 0,0.17631 -2.159,2.78775 -4.7977,5.8032 -7.4305,8.49124 -13.6579,20.51667 -18.8236,36.34914 -2.5633,7.85654 -5.1597,14.25205 -5.7697,14.21224 -0.6099,-0.0398 -7.1292,-1.82249 -14.4872,-3.96154 z"
     id="path929" />
  <path
     style="fill:#000000"
     d="M 504.28651,312.19944 C 497.4951,303.49195 480.89537,292.12596 466.03744,286.00996 458.55729,282.93089 443.18058,280 434.50658,280 H 430 v -17 c 0,-9.35 0.3375,-16.99702 0.75,-16.99337 3.42147,0.0302 24.88892,4.47919 33.68272,6.98044 24.70686,7.02746 43.5685,18.24218 61.88801,36.79724 l 6.82073,6.90843 -12.53422,10.18076 -12.53422,10.18075 z"
     id="path927" />
  <path
     style="fill:#000000"
     d="m 993.88488,313.55154 c -0.24665,-0.24665 -6.50915,-2.09013 -13.91667,-4.09664 -7.40751,-2.0065 -13.74784,-3.82049 -14.0896,-4.03108 -0.34177,-0.21059 0.22228,-3.4296 1.25345,-7.15335 5.56928,-20.11185 12.67754,-37.43753 20.82976,-50.77047 5.22399,-8.54381 17.11228,-23.49826 18.68108,-23.49927 0.6287,-4e-4 6.307,4.36695 12.6185,9.70523 l 11.4754,9.70595 -6.3986,7.86117 c -3.5193,4.32365 -7.4928,9.51847 -8.83,11.54405 -2.1359,3.23552 -13.2696,29.31543 -14.8063,34.68287 -4.7344,16.53684 -5.21056,17.65801 -6.81702,16.05154 z"
     id="path925" />
  <path
     style="fill:#000000"
     d="m 1378.748,303.63654 c -6.4636,-3.98229 -12.1965,-7.68499 -12.7397,-8.22824 -1.4682,-1.4682 10.1969,-15.81891 24.3895,-30.00464 C 1401.6843,254.12261 1427.3228,232 1429.1102,232 c 0.7571,0 20.1771,23.42321 20.5847,24.82814 0.1073,0.36952 -4.8427,4.4959 -11,9.16972 -6.1572,4.67383 -19.5199,16.68367 -29.6949,26.68854 l -18.5,18.19066 z"
     id="path923" />
  <path
     style="fill:#000000"
     d="m 332.08608,293.75166 c -5.54734,-6.18659 -10.07075,-11.69909 -10.052,-12.25 0.0187,-0.55091 3.95624,-4.05012 8.75,-7.77601 19.9377,-15.49636 48.64418,-25.11192 78.86658,-26.41724 L 424,246.68865 v 16.00121 16.0012 l -12.75,0.65334 c -26.60427,1.36327 -48.62358,9.10319 -63.50288,22.32162 -2.06409,1.83369 -4.16285,3.33398 -4.66392,3.33398 -0.50107,0 -5.44977,-5.06175 -10.99712,-11.24834 z"
     id="path921" />
  <path
     style="fill:#000000"
     d="m 1469.9916,276.29635 c -2.4704,-3.1401 -6.8129,-8.47928 -9.6501,-11.86484 l -5.1585,-6.15556 8.1585,-5.96535 c 4.4872,-3.28095 14.2335,-10.31671 21.6585,-15.63502 7.425,-5.31832 16.875,-12.27949 21,-15.46926 l 7.5,-5.7996 9.2645,12.00316 c 5.0955,6.60173 9.1229,12.47272 8.9498,13.04664 -0.1731,0.57391 -9.9671,7.92659 -21.7645,16.33928 -11.7974,8.41268 -24.3748,17.41268 -27.9498,20 -3.575,2.58731 -6.7288,4.81796 -7.0084,4.95701 -0.2797,0.13904 -2.5297,-2.31636 -5,-5.45646 z"
     id="path919" />
  <path
     style="fill:#000000"
     d="m 1052.9713,258.1913 c -3.5908,-3.13021 -8.7336,-7.53402 -11.4285,-9.78624 l -4.8998,-4.09495 2.1571,-3.02933 c 3.3915,-4.76296 17.4636,-16.1069 32.1999,-25.95744 13.8474,-9.25628 24.8665,-15.85284 25.3813,-15.19449 1.2988,1.66105 14.6187,25.81068 14.6187,26.50458 0,0.49254 -3.4875,2.82066 -7.75,5.17362 -10.0906,5.57014 -23.5778,15.22635 -34.4335,24.65275 -4.7759,4.14711 -8.8259,7.51379 -9,7.4815 -0.1741,-0.0323 -3.2544,-2.61978 -6.8452,-5.75 z"
     id="path917" />
  <path
     style="fill:#000000"
     d="m 1442.1771,242.35033 c -5.6776,-6.8958 -10.1776,-12.65555 -10,-12.79945 2.6557,-2.15169 18.1214,-13.11213 27.8229,-19.71793 6.875,-4.68124 16.7356,-11.75058 21.9125,-15.70964 5.1769,-3.95907 9.7468,-6.84393 10.1554,-6.41081 0.4086,0.43313 4.8236,6.07198 9.8111,12.5308 l 9.0681,11.7433 -13.7235,10.31046 c -7.548,5.67076 -19.9686,14.78627 -27.6013,20.2567 -7.6328,5.47043 -14.6078,10.48357 -15.5,11.14031 -1.392,1.02457 -3.0877,-0.58578 -11.9452,-11.34374 z"
     id="path915" />
  <path
     style="fill:#000000"
     d="m 1021,231.39828 c -6.325,-5.20939 -11.627,-9.83605 -11.7822,-10.28146 -0.4772,-1.36967 19.1068,-19.53557 29.0359,-26.93333 C 1051.702,184.16372 1075.7505,169 1078.1927,169 c 0.6718,0 16.1034,27.04809 15.6574,27.44368 -0.1926,0.17076 -2.3619,1.32562 -4.8209,2.56634 -14.6684,7.40145 -47.7855,32.15619 -53.8334,40.23998 -0.72,0.9625 -1.6212,1.72073 -2.0025,1.68495 -0.3813,-0.0358 -5.8683,-4.32727 -12.1933,-9.53667 z"
     id="path913" />
  <path
     style="fill:#000000"
     d="M 1530.2539,232.22085 C 1527.9185,229.07438 1523.7583,223.575 1521.009,220 l -4.9986,-6.5 2.6918,-1.97696 c 1.4806,-1.08733 10.5908,-8.8672 20.2449,-17.28861 19.7242,-17.20574 26.819,-25.70637 32.0702,-38.42517 2.4064,-5.82839 3.6556,-7.76502 4.7403,-7.34877 0.8101,0.31085 6.9335,1.47944 13.6076,2.59687 6.6742,1.11743 13.1199,2.23835 14.3239,2.49094 l 2.1892,0.45926 -2.3209,6.74622 c -7.0551,20.50692 -23.8595,40.44544 -58.4717,69.37699 -5.1779,4.32808 -9.6779,7.85611 -10,7.84008 -0.3222,-0.016 -2.4965,-2.60353 -4.8318,-5.75 z"
     id="path911" />
  <path
     style="fill:#000000"
     d="m 1110.9097,219.25 c -1.7804,-3.1625 -5.2196,-9.05628 -7.6428,-13.09728 -2.4231,-4.04101 -4.2619,-7.47705 -4.0863,-7.63567 0.1757,-0.15861 5.3877,-2.82151 11.5823,-5.91756 14.8981,-7.44599 44.2393,-19.50055 48.2776,-19.83435 2.8502,-0.2356 3.3493,0.1248 4.4795,3.23486 0.6996,1.925 3.0576,8.52471 5.2401,14.66603 l 3.9682,11.16603 -4.1142,1.50835 c -2.2627,0.8296 -9.0641,3.30644 -15.1141,5.50411 -10.7292,3.89737 -21.1765,8.22269 -32.6859,13.53237 -3.1273,1.44271 -5.9068,2.62311 -6.1766,2.62311 -0.2699,0 -1.9474,-2.5875 -3.7278,-5.75 z"
     id="path909" />
  <path
     style="fill:#000000"
     d="m 1503.5654,197.35506 -9.695,-12.57599 2.3148,-1.62098 c 8.0303,-5.62337 29.2691,-25.17122 38.0173,-34.99056 4.5908,-5.15277 4.8048,-5.2639 9,-4.67367 6.3469,0.89294 21.961,3.46126 24.5171,4.03273 l 2.2195,0.49623 -3.3365,7.32155 c -5.5295,12.13356 -10.97,18.45057 -31.18,36.20317 -10.4074,9.14193 -19.6515,17.01809 -20.5424,17.5026 -1.3004,0.70716 -3.5322,-1.59966 -11.3148,-11.69508 z"
     id="path907" />
  <path
     style="fill:#000000"
     d="m 1175.5091,199.85375 c -9.057,-24.14834 -10.3165,-28.36889 -8.68,-29.08648 3.5212,-1.54412 61.3901,-15.88143 61.9284,-15.3431 0.7185,0.71848 7.1953,25.52975 7.2223,27.66731 0.015,1.213 -3.1308,2.37659 -13.2298,4.89286 -12.4499,3.10203 -41.5084,11.21826 -45.1024,12.59739 -0.9403,0.36084 -1.8457,0.0526 -2.1385,-0.72798 z"
     id="path905" />
  <path
     style="fill:#000000"
     d="m 1089.0453,181.1471 -8.0119,-13.64509 9.7333,-4.8865 c 16.286,-8.17622 58.4781,-24.70407 59.7689,-23.41321 0.2249,0.22483 2.6093,6.75847 5.2988,14.51921 l 4.8901,14.11044 -4.3927,1.10609 c -6.8096,1.71468 -37.6766,14.64564 -49.0532,20.54965 l -10.2214,5.30449 z"
     id="path903" />
  <path
     style="fill:#000000"
     d="m 1239.5295,182.81895 c -0.2534,-0.72542 -2,-7.50288 -3.8814,-15.06101 l -3.4208,-13.74206 3.6364,-0.97849 c 3.989,-1.0734 35.6448,-8.6905 49.1363,-11.8233 4.675,-1.08556 8.7852,-1.69033 9.1339,-1.34392 0.7222,0.71765 8.1199,29.26022 7.6639,29.56968 -0.3116,0.21142 -7.1253,1.79339 -17.2978,4.01608 -8.3995,1.8353 -40.6313,9.47719 -42.7549,10.13685 -0.9768,0.30341 -1.9592,-0.0397 -2.2156,-0.77383 z"
     id="path901" />
  <path
     style="fill:#000000"
     d="m 1302.1288,156.63308 c -1.7104,-6.6732 -3.3805,-13.52153 -3.7114,-15.21853 l -0.6016,-3.08545 8.3421,-1.78573 c 4.5882,-0.98215 18.8798,-4.65595 31.7593,-8.16401 12.8795,-3.50806 23.5269,-6.26603 23.661,-6.12882 1.0922,1.11763 9.2793,28.27816 8.6881,28.82259 -1.0576,0.97396 -15.6342,5.06834 -42.3971,11.90875 l -22.6307,5.78427 z"
     id="path899" />
  <path
     style="fill:#000000"
     d="m 1162.9067,164.31714 c -2.652,-6.82385 -9.0904,-26.4614 -8.7653,-26.73454 0.4708,-0.39547 22.676,-7.05968 30.3586,-9.11118 29.0628,-7.76074 35.645,-9.24954 36.0254,-8.14842 1.049,3.03651 7.5272,29.95611 7.2684,30.20291 -0.1616,0.15405 -13.7938,3.70803 -30.2938,7.89772 -16.5,4.18969 -30.7872,7.86355 -31.7492,8.16413 -1.253,0.39148 -2.0598,-0.25268 -2.8441,-2.27062 z"
     id="path897" />
  <path
     style="fill:#000000"
     d="m 1229.7778,144.26411 c -3.1198,-11.54227 -6.1482,-25.22701 -5.6852,-25.69002 0.261,-0.26098 6.7594,-1.85924 14.4409,-3.5517 14.7389,-3.24736 27.0913,-6.10368 39.4252,-9.11647 4.1022,-1.00206 7.5014,-1.72833 7.5537,-1.61392 1.2849,2.81239 7.3423,30.216 6.7831,30.68694 -0.4375,0.3685 -4.3955,1.46644 -8.7955,2.43985 -9.2547,2.04744 -48.2357,11.38476 -50.5821,12.11623 -1.2123,0.37791 -1.9463,-0.8542 -3.1401,-5.27091 z"
     id="path895" />
  <path
     style="fill:#000000"
     d="m 1369.5552,136.06213 c -2.5054,-7.66583 -4.5524,-14.30333 -4.5489,-14.75 0,-0.44667 7.991,-3.50435 17.75,-6.79484 10.7002,-3.60781 23.3468,-8.78912 31.8586,-13.05247 l 14.115,-7.069769 7.2102,14.393979 c 3.9656,7.91669 7.0639,14.52787 6.8851,14.69152 -0.97,0.88759 -19.1902,9.07967 -28.0533,12.6132 C 1404.3493,140.24901 1376.4065,150 1374.9217,150 c -0.4462,0 -2.8611,-6.27204 -5.3665,-13.93787 z"
     id="path893" />
  <path
     style="fill:#000000"
     d="m 1595,145.17689 c -4.675,-0.7453 -10.8625,-1.7969 -13.75,-2.33689 l -5.25,-0.9818 v -7.82376 c 0,-9.85951 -2.6301,-18.76549 -8.8305,-29.90142 -3.9164,-7.033856 -7.072,-10.715347 -19.8051,-23.105878 -10.7848,-10.494545 -16.4696,-15.28435 -19.7411,-16.633021 -5.3125,-2.190092 -5.4528,-0.398678 1.4405,-18.394121 5.4451,-14.214734 4.8154,-13.849053 14.5483,-8.448094 11.5987,6.43638 20.6328,14.18821 34.9846,30.019364 20.1036,22.175703 27.9438,40.00513 29.1011,66.17927 l 0.5859,13.25053 -2.3919,-0.23455 c -1.3155,-0.129 -6.2168,-0.84434 -10.8918,-1.58963 z"
     id="path891" />
  <path
     style="fill:#000000"
     d="M 1563,139.91276 C 1551.6206,137.70504 1547.181,137 1544.6584,137 c -2.882,0 -3.157,-0.40967 -4.0988,-6.10625 -0.328,-1.98344 -1.9511,-5.65157 -3.6069,-8.15141 -4.0309,-6.08556 -19.204,-22.11653 -23.37,-24.691225 l -3.3351,-2.061205 4.9611,-13.244955 c 2.7286,-7.284725 5.2686,-14.027628 5.6443,-14.984228 1.2772,-3.251546 8.6332,1.849705 23.6101,16.373288 10.6999,10.375983 15.3046,15.633155 18.4753,21.093265 5.6887,9.79586 9.0328,20.5215 9.0488,29.02272 0.014,7.59945 0.2453,7.45397 -8.9872,5.66276 z"
     id="path889" />
  <path
     style="fill:#000000"
     d="m 1296,133.47241 c 0,-0.29017 -1.575,-6.67228 -3.5,-14.18247 -1.925,-7.51019 -3.5,-14.19555 -3.5,-14.85637 0,-0.71479 5.3674,-2.49032 13.25,-4.38312 12.7056,-3.050895 19.4999,-4.852223 39.2291,-10.400498 4.9385,-1.388813 8.9988,-2.440703 9.0229,-2.337533 0.024,0.103169 2.2135,6.85755 4.8654,15.009731 2.6519,8.15219 4.577,15.06682 4.2779,15.36585 -1.2564,1.2564 -58.3668,16.30535 -61.8953,16.30979 -0.9625,0.001 -1.75,-0.2352 -1.75,-0.52538 z"
     id="path887" />
  <path
     style="fill:#000000"
     d="m 1439.2199,108.66974 c -3.6927,-7.24336 -6.8454,-13.852597 -7.006,-14.6872 -0.2082,-1.081744 6.2515,-4.73917 22.497,-12.737667 C 1482.2084,67.706466 1489.221,64.98049 1499,64.02839 c 7.1227,-0.693477 19.0074,0.450629 18.9935,1.828459 0,0.353733 -2.3812,6.933286 -5.2837,14.621228 l -5.2772,13.978077 -4.0586,0.692849 c -6.2968,1.074947 -25.3273,9.643097 -47.1571,21.231607 l -10.283,5.45886 z"
     id="path885" />
  <path
     style="fill:#000000"
     d="M 1358.694,102.62237 C 1356.1123,94.815098 1354,87.913109 1354,87.284622 c 0,-0.628488 2.5875,-1.891432 5.75,-2.806543 10.9416,-3.16608 30.1686,-10.504134 40.5627,-15.48082 C 1406.053,66.248767 1411.2269,64 1411.8102,64 1412.8004,64 1426,88.431127 1426,90.263827 c 0,1.713812 -31.0606,15.767513 -46.556,21.064723 l -16.056,5.48887 z"
     id="path883" />
  <path
     style="fill:#000000"
     d="m 1422.2453,75.437097 c -6.4852,-13.039858 -6.6686,-13.608683 -4.7574,-14.75 1.0934,-0.652903 8.0684,-4.337158 15.5,-8.187233 C 1469.1416,33.769893 1486.7282,28 1507.6631,28 c 8.9178,0 23.3587,2.371995 23.3184,3.830154 -0.01,0.368415 -2.4646,6.969846 -5.4542,14.669846 l -5.4357,14 -3.2958,-0.231997 c -1.8127,-0.127599 -7.7038,-0.24867 -13.0914,-0.269048 -13.1685,-0.04981 -21.0828,2.679504 -50.606,17.451803 C 1440.4035,83.802841 1429.7858,89 1429.5036,89 c -0.2822,0 -3.5484,-6.103306 -7.2583,-13.562903 z"
     id="path879" />
</svg>
