<?xml version="1.0" encoding="UTF-8" standalone="no"?>
<!-- Created with Inkscape (http://www.inkscape.org/) -->

<svg
   version="1.1"
   id="svg2"
   width="1650"
   height="1100"
   viewBox="0 0 1650 1100"
   sodipodi:docname="nederland.svg"
   inkscape:version="1.2.2 (b0a8486541, 2022-12-01)"
   xmlns:inkscape="http://www.inkscape.org/namespaces/inkscape"
   xmlns:sodipodi="http://sodipodi.sourceforge.net/DTD/sodipodi-0.dtd"
   xmlns="http://www.w3.org/2000/svg"
   xmlns:svg="http://www.w3.org/2000/svg">
  <defs
     id="defs6" />
  <sodipodi:namedview
     id="namedview4"
     pagecolor="#ffffff"
     bordercolor="#666666"
     borderopacity="1.0"
     inkscape:showpageshadow="2"
     inkscape:pageopacity="0.0"
     inkscape:pagecheckerboard="0"
     inkscape:deskcolor="#d1d1d1"
     showgrid="false"
     inkscape:zoom="0.76636364"
     inkscape:cx="766.60735"
     inkscape:cy="551.30486"
     inkscape:window-width="1920"
     inkscape:window-height="1020"
     inkscape:window-x="0"
     inkscape:window-y="32"
     inkscape:window-maximized="1"
     inkscape:current-layer="g8" />
  <g
     inkscape:groupmode="layer"
     inkscape:label="Image"
     id="g8">
    <path
       style="fill:#000000"
       d="m 543.5,1029.4359 c -0.55,-0.1585 -4.39444,-0.5761 -8.5432,-0.928 l -7.5432,-0.6398 2.12479,-15.9323 c 1.16863,-8.7628 2.37059,-16.17811 2.67102,-16.47854 0.30043,-0.30043 5.63144,-0.0138 11.8467,0.63699 6.89775,0.72224 19.21789,0.98538 31.62218,0.67542 18.26764,-0.45648 20.32272,-0.34416 20.3317,1.11126 0.005,0.89049 0.67172,7.46907 1.48049,14.61907 0.80878,7.15 1.47928,14.0288 1.49001,15.2861 l 0.0195,2.2862 -27.25,-0.1741 c -14.9875,-0.096 -27.7,-0.3037 -28.25,-0.4623 z"
       id="path293" />
    <path
       style="fill:#000000"
       d="m 1474.578,137.84367 c -2.1571,-1.13737 -9.1321,-3.42826 -15.5,-5.09088 -10.4455,-2.72724 -13.4885,-3.06963 -31.1096,-3.50032 -17.1842,-0.42002 -20.7825,-0.22227 -29.9397,1.64536 -5.7245,1.16752 -10.713,1.78062 -11.0855,1.36246 -0.9502,-1.06636 -7.176,-27.36078 -6.612,-27.92486 0.8986,-0.89857 11.2434,-3.4742 16.6688,-4.15017 10.254,-1.27757 50.032,-0.789097 56.7275,0.69661 3.4251,0.76003 6.0364,1.69111 5.8028,2.06906 -0.2336,0.37795 0.7891,0.5191 2.2725,0.31368 1.4835,-0.20543 6.7472,1.02188 11.6972,2.72736 4.95,1.70548 11.1044,3.81266 13.6765,4.68262 5.42,1.83321 5.6084,0.039 -1.8982,18.07541 -2.5752,6.1875 -5.1538,11.23011 -5.7303,11.2058 -0.5764,-0.0243 -2.8129,-0.97477 -4.97,-2.11213 z"
       id="path513" />
    <path
       style="fill:#000000"
       d="m 1310.4629,169.75 c -2.6896,-3.9875 -6.3691,-9.22721 -8.1766,-11.6438 -1.8074,-2.41659 -3.2863,-4.70281 -3.2863,-5.08048 0,-0.37768 2.1375,-2.20229 4.75,-4.05471 2.6125,-1.85242 4.975,-3.6162 5.25,-3.91952 0.6111,-0.67404 2.7862,-2.20792 25.3181,-17.85429 16.5892,-11.51967 26.8741,-17.2358 37.5516,-20.87037 2.4033,-0.81808 4.6993,-1.11379 5.102,-0.65713 0.4028,0.45667 1.9342,6.0053 3.4032,12.3303 1.469,6.325 2.9393,12.51719 3.2674,13.76041 0.4986,1.88974 0.044,2.4519 -2.7729,3.42812 -9.851,3.41403 -24.0511,12.02458 -43.3673,26.29674 -11.5488,8.5331 -21.2569,15.51473 -21.5735,15.51473 -0.3166,0 -2.7762,-3.2625 -5.4657,-7.25 z"
       id="path511" />
    <path
       style="fill:#000000"
       d="m 1455.1134,175.37828 c -13.8431,-5.23605 -34.3877,-6.80191 -50.1106,-3.81932 -4.52,0.85743 -8.328,1.41993 -8.4621,1.25 -0.4584,-0.58061 -8.4221,-34.26094 -8.1624,-34.52064 0.1425,-0.14245 4.5031,-1.11818 9.6904,-2.16828 20.4286,-4.13558 39.7134,-3.53746 60.9752,1.89116 6.5143,1.66325 18.9561,6.53419 18.9561,7.42128 0,0.15722 -1.6482,3.83673 -3.6626,8.17669 -2.0144,4.33996 -5.1206,11.49083 -6.9026,15.89083 -1.7821,4.4 -3.8464,8.06615 -4.5874,8.14699 -0.7411,0.0808 -4.2214,-0.94007 -7.734,-2.26871 z"
       id="path509" />
    <path
       style="fill:#000000"
       d="m 486.5,178.23899 c -1.65,-0.88597 -9.975,-4.68614 -18.5,-8.44483 -13.32273,-5.87401 -23.60009,-9.26413 -44.8303,-14.78783 l -4.33029,-1.12666 0.53072,-10.68984 c 0.2919,-5.8794 0.55303,-12.65418 0.5803,-15.05505 l 0.0496,-4.36523 5.75,0.70383 c 13.0453,1.59681 28.5924,6.39528 47.75,14.73758 7.87611,3.4297 27.80858,12.76429 28.29526,13.25097 0.33209,0.33209 -10.73128,25.53926 -11.72427,26.71299 -0.31404,0.3712 -1.92099,-0.05 -3.57099,-0.93593 z"
       id="path507" />
    <path
       style="fill:#000000"
       d="m 325.42224,175.68669 c -4.92379,-5.05268 -9.99852,-10.38374 -11.27717,-11.84681 l -2.32483,-2.66012 2.08988,-2.08988 C 315.05955,157.94045 316.22396,157 316.49769,157 c 0.27372,0 2.63622,-1.51054 5.25,-3.35676 6.64942,-4.69676 15.01538,-8.87859 27.25231,-13.6224 5.775,-2.23875 12.75,-4.98869 15.5,-6.11097 2.75,-1.12228 5.675,-2.22288 6.5,-2.44578 18.15907,-4.90621 24.78117,-6.43524 30.0961,-6.94914 3.52214,-0.34055 7.99547,-0.79407 9.94071,-1.00784 5.98242,-0.65741 6.26767,-0.042 5.62013,12.12464 -0.31815,5.97754 -0.59611,12.48969 -0.61769,14.47146 l -0.0392,3.6032 -4.75,-0.44551 c -12.7169,-1.19274 -58.95407,16.20265 -71.3127,26.82933 l -5.56271,4.78314 -8.95235,-9.18668 z"
       id="path505" />
    <path
       style="fill:#000000"
       d="M 527.5,197.64415 C 505.33411,187.36529 493,181.17957 493,180.34195 c 0,-0.6875 11.02105,-25.5717 11.62931,-26.25756 0.20272,-0.22859 5.88155,2.09549 12.61964,5.16463 6.73808,3.06913 19.00105,8.60639 27.25105,12.30503 8.25,3.69864 15.1154,6.81495 15.25644,6.92514 0.38005,0.29693 -10.80788,24.81248 -11.98897,26.27081 -0.5568,0.6875 -1.29476,1.24802 -1.63991,1.24559 -0.34516,-0.002 -8.72756,-3.76057 -18.62756,-8.35144 z"
       id="path503" />
    <path
       style="fill:#000000"
       d="m 1544.9966,201.87204 c -5.6954,-11.53359 -13.6796,-23.29348 -21.5666,-31.76552 -8.7993,-9.45194 -23.1453,-20.57784 -31.2464,-24.23276 -3.4741,-1.56735 -6.115,-3.19264 -5.8687,-3.61175 0.2463,-0.4191 1.4493,-3.01201 2.6734,-5.76201 1.2241,-2.75 3.5275,-7.8439 5.1187,-11.31977 1.5911,-3.47587 2.893,-6.71182 2.893,-7.19098 0,-2.45322 2.8193,-1.63137 10.7566,3.13559 10.6587,6.40136 17.8405,11.2333 21.4934,14.46082 1.5125,1.33637 2.75,2.18316 2.75,1.88175 0,-1.52454 17.6585,15.97131 23.9213,23.701 6.9969,8.63564 6.6719,8.20287 7.9369,10.5666 0.6208,1.15997 1.724,2.70663 2.4515,3.43701 1.8403,1.84742 10.6905,19.87536 10.6894,21.77429 -6e-4,0.97377 -2.1467,2.36045 -5.75,3.71514 -3.162,1.1888 -9.4759,3.74258 -14.031,5.67506 l -8.2819,3.51361 z"
       id="path501" />
    <path
       style="fill:#000000"
       d="m 1336.7821,207.75 c -4.8873,-6.46913 -17.9779,-25.88574 -17.6342,-26.15598 2.2352,-1.75785 33.0283,-24.31319 38.1482,-27.94286 6.2208,-4.41014 27.4182,-15.34334 28.1269,-14.50724 0.3386,0.39953 5.7256,22.51864 6.0535,24.85608 0.1158,0.825 0.7605,3.45792 1.4327,5.85094 0.6723,2.39302 1.0802,4.43136 0.9065,4.52966 -0.1736,0.0983 -1.895,0.894 -3.8253,1.76824 -3.3335,1.50979 -15.0663,9.60977 -34.1054,23.54543 -4.7382,3.46815 -9.3507,6.30573 -10.25,6.30573 -0.8992,0 -1.635,0.51289 -1.635,1.13976 0,1.10932 -2.8654,3.76466 -4.1313,3.82844 -0.3472,0.0175 -1.7362,-1.4307 -3.0866,-3.2182 z"
       id="path499" />
    <path
       style="fill:#000000"
       d="m 349.4303,200.88751 -11.76363,-11.91034 4.33854,-3.73858 c 6.34406,-5.46678 6.83999,-5.7662 17.10282,-10.32597 29.99614,-13.32727 50.78782,-19.38177 55.45123,-16.14731 0.72126,0.50025 0.82491,5.36166 0.32482,15.23469 -0.40394,7.975 -0.76811,15.93493 -0.80926,17.68873 -0.0707,3.01177 -0.33233,3.22734 -4.71523,3.8846 -7.87961,1.18162 -27.75945,7.92182 -40.51262,13.73568 l -7.65304,3.48883 z"
       id="path497" />
    <path
       style="fill:#000000"
       d="m 1260.468,209.79171 c -1.9582,-2.91044 -5.7736,-8.44171 -8.4785,-12.29171 -2.705,-3.85 -4.9342,-7.31476 -4.9538,-7.69947 -0.047,-0.92213 12.4164,-9.80053 13.758,-9.80053 0.5718,0 1.1896,-0.37665 1.373,-0.83701 0.6998,-1.75733 33.019,-24.3057 34.1925,-23.85538 0.6791,0.26057 4.8083,5.72766 9.176,12.14908 l 7.9413,11.67531 -2.4883,1.92358 c -4.257,3.29101 -44.2178,32.40038 -45.6258,33.23613 -0.9327,0.55361 -2.4047,-0.79971 -4.8944,-4.5 z"
       id="path495" />
    <path
       style="fill:#000000"
       d="m 452.5933,208.40059 c -10.39869,-4.67815 -22.54869,-9.56197 -27,-10.85292 l -8.0933,-2.3472 0.36118,-17.85023 c 0.19865,-9.81763 0.44637,-17.94796 0.55048,-18.06739 0.10412,-0.11943 7.42722,1.76676 16.27357,4.19154 11.19859,3.06953 21.63726,6.85626 34.36541,12.46638 10.05463,4.43173 18.44287,8.2194 18.64052,8.41706 0.19766,0.19766 -2.27998,5.9355 -5.50586,12.75077 -3.22589,6.81527 -6.42216,14.0789 -7.10282,16.1414 -0.68067,2.0625 -1.76519,3.72892 -2.41003,3.70316 -0.64485,-0.0258 -9.68047,-3.87442 -20.07915,-8.55257 z"
       id="path493" />
    <path
       style="fill:#000000"
       d="m 1507.921,217.25 c -2.4874,-4.97001 -6.0117,-9.38703 -13.3648,-16.75 -5.4926,-5.5 -9.8785,-10.37095 -9.7466,-10.82433 0.132,-0.45338 -0.2476,-0.52299 -0.8435,-0.15469 -0.596,0.3683 -2.7446,-0.42619 -4.7748,-1.76553 -2.0302,-1.33933 -4.9339,-3.19596 -6.4527,-4.12582 -2.2957,-1.40554 -2.6488,-2.14929 -2.094,-4.41015 0.8237,-3.35616 12.0001,-29.26422 13.0978,-30.36184 1.1329,-1.13292 10.1331,3.25308 16.9551,8.2626 14.6545,10.76113 24.0584,20.87842 33.3884,35.92155 4.2453,6.84473 10.3436,18.95821 9.5442,18.95821 -0.143,0 -6.9144,2.7 -15.0476,6 -8.1333,3.3 -15.3492,6 -16.0355,6 -0.6863,0 -2.768,-3.0375 -4.626,-6.75 z"
       id="path491" />
    <path
       style="fill:#000000"
       d="m 577.83302,220.62911 c -14.66683,-6.67135 -26.95243,-12.41519 -27.30132,-12.76408 -0.34889,-0.34889 0.89229,-3.94875 2.75819,-7.99969 1.86589,-4.05094 4.65044,-10.17784 6.18789,-13.61534 1.53744,-3.4375 2.92866,-6.25 3.09159,-6.25 0.16293,0 9.88898,4.40921 21.61343,9.79825 11.72446,5.38904 23.89702,10.90154 27.05013,12.25 3.15312,1.34846 5.74062,2.91674 5.75,3.48507 0.0197,1.19207 -10.86549,25.65028 -11.83665,26.5961 -0.35545,0.34617 -12.64642,-4.82897 -27.31326,-11.50031 z"
       id="path489" />
    <path
       style="fill:#000000"
       d="m 520.5,239.52937 c -3.85,-1.83461 -15.1,-7.04526 -25,-11.57922 -9.9,-4.53396 -18.33708,-8.53712 -18.74906,-8.89592 -0.7739,-0.67399 11.49609,-30.0099 13.72265,-32.80904 0.11148,-0.14014 10.96303,4.84211 24.11455,11.07166 13.15152,6.22956 25.39132,11.91834 27.19955,12.64174 1.80823,0.7234 3.15823,1.61604 3,1.98364 -6.79269,15.78083 -14.56474,31.04465 -15.77967,30.99028 -0.82941,-0.0371 -4.65802,-1.56853 -8.50802,-3.40314 z"
       id="path487" />
    <path
       style="fill:#000000"
       d="m 1285.5567,245.77749 c -0.8562,-1.22237 -1.5567,-2.75987 -1.5567,-3.41666 0,-0.65679 -0.4241,-1.34416 -0.9425,-1.5275 -0.5184,-0.18333 -4.2572,-5.0734 -8.3084,-10.86682 l -7.3658,-10.5335 24.0065,-17.4665 c 13.2036,-9.60658 24.3281,-17.60344 24.7212,-17.7708 0.3931,-0.16735 5.3481,6.32627 11.011,14.43028 5.663,8.10401 9.8647,14.88301 9.3372,15.06444 -0.5276,0.18142 -8.1592,5.53162 -16.9592,11.88931 -8.8,6.3577 -19.0351,13.59221 -22.7447,16.0767 -3.7095,2.4845 -6.9986,4.92818 -7.309,5.43041 -0.9231,1.4936 -2.2359,1.05168 -3.8896,-1.30936 z"
       id="path485" />
    <path
       style="fill:#000000"
       d="m 1206.3408,243.4045 c -3.2125,-4.18074 -6.2908,-8.35389 -6.8408,-9.27367 -0.55,-0.91978 -2.0125,-3.08245 -3.25,-4.80595 -2.5296,-3.52308 -2.7415,-4.32488 -1.143,-4.32488 0.6088,0 5.4046,-3.0375 10.6572,-6.75 5.2527,-3.7125 13.4171,-9.38892 18.1431,-12.61426 4.726,-3.22535 10.9359,-7.61285 13.7998,-9.75 2.8639,-2.13716 5.623,-3.88574 6.1313,-3.88574 1.1734,0 11.5631,14.13248 17.7542,24.14982 0.3357,0.54317 -41.7806,30.37248 -48.2518,34.17488 -0.7046,0.41398 -3.4502,-2.30034 -7,-6.9202 z"
       id="path483" />
    <path
       style="fill:#000000"
       d="M 646,251.52333 C 619.80708,240.06379 608.05186,234.55866 608.02497,233.7391 607.95997,231.75805 619.76201,207 620.77137,207 c 1.0499,0 19.54147,8.24122 35.22863,15.7005 6.325,3.00755 13.1875,6.15416 15.25,6.99247 2.0625,0.8383 3.75,1.64408 3.75,1.79062 0,0.14653 -2.38038,5.38517 -5.28973,11.64142 -2.90935,6.25624 -5.72185,12.32948 -6.25,13.49608 -0.93595,2.06736 -1.37819,1.93824 -17.46027,-5.09776 z"
       id="path481" />
    <path
       style="fill:#000000"
       d="m 572.5,263.1014 c -8.25,-3.70016 -19.4096,-8.83668 -24.79911,-11.41449 -5.38951,-2.5778 -10.11451,-4.70122 -10.5,-4.71871 -0.38549,-0.0175 -1.48359,-0.62609 -2.44022,-1.35244 -1.61133,-1.22346 -1.22087,-2.45168 5.3063,-16.69116 3.8751,-8.45379 7.23201,-15.55691 7.4598,-15.78471 C 548.45031,212.21636 602,237.37561 602,238.73304 c 0,1.50474 -12.59176,29.2831 -13.78973,30.42118 -0.39065,0.37111 -7.46027,-2.35265 -15.71027,-6.05282 z"
       id="path479" />
    <path
       style="fill:#000000"
       d="M 317.72362,282.31817 C 317.46034,281.86818 316.468,278.8 315.51842,275.5 c -1.42834,-4.96378 -1.61661,-8.33149 -1.09015,-19.5 0.83921,-17.80338 2.31284,-29.82966 4.77883,-39 2.22229,-8.26407 7.36862,-18.31333 11.24188,-21.95207 l 2.49709,-2.3459 11.27697,11.83175 c 12.26436,12.86773 11.88787,11.95684 9.28587,22.46622 -1.93358,7.80968 -3.11375,35.75515 -1.75531,41.56447 l 0.95043,4.06447 -16.10201,4.82461 c -8.85611,2.65353 -16.619,5.0177 -17.25087,5.2537 -0.63187,0.236 -1.36426,0.0609 -1.62753,-0.38908 z"
       id="path477" />
    <path
       style="fill:#000000"
       d="m 1228,273.34646 c -4.125,-5.79326 -8.7974,-12.0813 -10.3831,-13.97341 -1.5857,-1.89212 -2.7107,-3.58085 -2.5,-3.75273 3.9391,-3.21345 28.7824,-19.43439 29.2431,-19.09368 0.352,0.26035 0.4264,0.18473 0.1653,-0.16805 -0.2611,-0.35277 4.3151,-3.9392 10.1694,-7.96985 l 10.6443,-7.32844 3.1256,4.74602 c 1.7191,2.61031 5.6271,8.12853 8.6845,12.26269 5.6134,7.59053 8.289,11.8931 7.6819,12.35308 -0.182,0.13793 -4.7765,3.36189 -10.2099,7.16435 -5.4333,3.80246 -11.5083,8.06609 -13.5,9.47473 -1.9916,1.40864 -6.0961,4.29519 -9.1211,6.41455 -3.025,2.11936 -7.4772,5.35434 -9.8938,7.18883 -2.4166,1.8345 -4.8916,3.30837 -5.5,3.27528 -0.6084,-0.0331 -4.4812,-4.80011 -8.6062,-10.59337 z"
       id="path475" />
    <path
       style="fill:#000000"
       d="m 711,281.54122 c -4.675,-2.39708 -16.90062,-8.32722 -27.16803,-13.17807 l -18.66804,-8.81973 1.29799,-3.02171 c 0.71389,-1.66194 2.65848,-5.94671 4.3213,-9.52171 1.66283,-3.575 3.71889,-8.1875 4.56903,-10.25 1.72538,-4.18592 2.44628,-4.42267 6.72678,-2.20913 1.63884,0.84747 3.41649,1.27092 3.95034,0.94098 0.53385,-0.32994 0.97063,-0.10733 0.97063,0.49467 0,0.60201 2.1375,1.99737 4.75,3.10082 15.93009,6.7284 36.00655,16.50756 35.51676,17.30005 -0.31668,0.5124 -0.0656,0.61629 0.55806,0.23087 0.62362,-0.38541 2.0329,-0.21959 3.13173,0.36849 1.97995,1.05963 1.97671,1.11617 -0.36096,6.29624 -4.37424,9.69292 -10.61401,22.72738 -10.85568,22.67679 -0.13195,-0.0276 -4.06491,-2.01148 -8.73991,-4.40856 z"
       id="path473" />
    <path
       style="fill:#000000"
       d="m 1156,281.32588 c -2.475,-3.53801 -6.4005,-8.9962 -8.7234,-12.12931 -2.3228,-3.13311 -4.2353,-6.00051 -4.25,-6.37198 -0.015,-0.37148 4.1359,-3.55828 9.2234,-7.08179 5.0875,-3.5235 12.9387,-8.95707 17.4472,-12.07459 4.5084,-3.11751 8.4937,-5.66821 8.8561,-5.66821 0.3624,0 1.5438,-1.125 2.6254,-2.5 1.0815,-1.375 2.4963,-2.51001 3.1439,-2.52224 0.6476,-0.0122 2.3024,-0.90222 3.6774,-1.97776 3.5697,-2.79228 4.3665,-2.54157 8.1332,2.55918 1.8517,2.50755 4.9508,6.67005 6.8869,9.25 1.936,2.57995 4.2864,5.89397 5.223,7.36448 l 1.703,2.67367 -16.0303,11.32633 c -8.8167,6.22949 -19.9421,14.08453 -24.7231,17.45565 l -8.6927,6.12932 z"
       id="path471" />
    <path
       style="fill:#000000"
       d="m 1531,290.46052 c -7.975,-1.30897 -15.3468,-2.39807 -16.3817,-2.42023 -1.6456,-0.0352 -1.8,-0.57336 -1.2309,-4.29029 1.6269,-10.62412 2.7127,-24.02069 2.6361,-32.52171 -0.074,-8.25426 -0.5259,-11.93169 -2.6174,-21.31388 -0.56,-2.51204 -0.1177,-2.77152 15.5491,-9.1213 l 16.1255,-6.53572 1.5218,3.62131 c 2.135,5.08075 4.1932,13.99959 5.819,25.21591 2.3383,16.13229 -1.3352,49.06225 -5.5304,49.57562 -0.7651,0.0936 -7.9161,-0.90075 -15.8911,-2.20971 z"
       id="path469" />
    <path
       style="fill:#000000"
       d="m 283.13161,289.75 c -0.56292,-1.7875 -1.29055,-4.825 -1.61695,-6.75 -0.3264,-1.925 -0.91323,-4.85 -1.30406,-6.5 -0.39083,-1.65 -0.66269,-12 -0.60414,-23 0.20292,-38.12413 6.55685,-61.98911 21.68466,-81.44631 l 4.79112,-6.16228 2.70888,2.34684 c 1.48988,1.29076 6.73671,6.49928 11.65962,11.5745 l 8.95074,9.22766 -2.98006,2.7298 c -1.63902,1.50138 -4.59214,5.65479 -6.56247,9.22979 -6.32953,11.48443 -9.07324,26.08675 -10.44374,55.58279 -0.63495,13.66531 -0.0905,18.282 3.15288,26.73406 0.38431,1.0015 -1.21849,1.88268 -5.72386,3.14682 -3.44171,0.96569 -9.64668,2.83142 -13.78882,4.14607 -4.14214,1.31464 -7.83923,2.39026 -8.21574,2.39026 -0.37651,0 -1.14514,-1.4625 -1.70806,-3.25 z"
       id="path467" />
    <path
       style="fill:#000000"
       d="m 630,289.62335 c -7.425,-3.44241 -15.075,-6.98188 -17,-7.86549 -12.90182,-5.92214 -21.54086,-9.97289 -21.78722,-10.21579 -0.37493,-0.36965 13.25044,-31.33836 14.21047,-32.2986 0.14106,-0.14109 7.41604,3.05223 16.16661,7.09628 8.75058,4.04404 20.98757,9.49547 27.19333,12.11428 13.11575,5.53483 12.65598,3.25335 4.22668,20.97407 -3.15827,6.63954 -6.05783,13.0844 -6.44348,14.3219 -0.38564,1.2375 -1.23334,2.22351 -1.88378,2.19114 -0.65043,-0.0324 -7.25761,-2.87537 -14.68261,-6.31779 z"
       id="path465" />
    <path
       style="fill:#000000"
       d="m 1573,296.91008 c -5.225,-0.92136 -9.725,-1.78134 -10,-1.91106 -0.275,-0.12973 -0.9162,-0.15632 -1.425,-0.0591 -0.5087,0.0972 -2.5933,-0.10511 -4.6324,-0.44961 l -3.7074,-0.62636 1.8006,-6.18197 c 2.826,-9.70199 4.1,-33.68731 2.4238,-45.63143 -1.6088,-11.46354 -4.1632,-22.37157 -6.1809,-26.39347 -0.7844,-1.56361 -1.228,-3.0411 -0.9858,-3.28331 0.2422,-0.2422 4.4379,-2.0242 9.3237,-3.95998 4.8859,-1.93578 11.0298,-4.47689 13.6532,-5.6469 2.9149,-1.30003 5.1157,-1.76555 5.6592,-1.19709 1.6283,1.70297 5.2285,15.73016 7.5536,29.43021 0.3267,1.925 0.8616,10.025 1.1886,18 0.482,11.75298 0.1748,17.72065 -1.6212,31.5 -1.2186,9.35 -2.5159,17.24419 -2.8829,17.54264 -0.3669,0.29846 -4.9421,-0.2112 -10.1671,-1.13256 z"
       id="path463" />
    <path
       style="fill:#000000"
       d="m 769.5,308.05085 c -3.3,-1.52743 -15,-6.73473 -26,-11.57177 -11,-4.83705 -20.17307,-8.93421 -20.3846,-9.10479 -0.69287,-0.55876 2.10341,-6.37429 3.06494,-6.37429 0.51573,0 0.72261,-0.34801 0.45974,-0.77335 -0.26288,-0.42534 0.60645,-3.01284 1.93184,-5.75 1.32539,-2.73716 2.41391,-5.53915 2.41894,-6.22665 0.005,-0.6875 0.38791,-1.25 0.85085,-1.25 0.46294,0 1.38061,-1.79866 2.03925,-3.99702 l 1.19754,-3.99702 3.21075,1.39327 c 4.73977,2.05679 16.36184,7.35592 23.21075,10.58306 3.3,1.55493 7.6875,3.56613 9.75,4.46934 2.0625,0.90321 3.75,2.05697 3.75,2.5639 0,0.50694 0.57505,0.70103 1.27788,0.43133 1.55626,-0.59719 14.00131,5.28705 13.54608,6.40484 -6.00015,14.73312 -11.59339,26.09009 -12.82396,26.03881 -0.825,-0.0344 -4.2,-1.31223 -7.5,-2.83966 z"
       id="path461" />
    <path
       style="fill:#000000"
       d="m 1180.5314,315.71205 c -1.6328,-2.31663 -5.8465,-8.24624 -9.3639,-13.17691 -3.5173,-4.93067 -6.5452,-9.43067 -6.7286,-10 -0.2662,-0.82614 35.1829,-26.58943 46.4064,-33.72673 l 2.66,-1.69159 4.2559,6.19159 c 2.3407,3.40538 6.7037,9.56659 9.6956,13.69159 2.9919,4.125 5.4631,7.83403 5.4915,8.24229 0.065,0.93009 -4.3478,4.87583 -8.9483,8.00151 -1.925,1.3079 -6.3886,4.3756 -9.9191,6.8171 -18.8127,13.00976 -29.2006,19.93505 -29.8518,19.90115 -0.401,-0.0209 -2.065,-1.93337 -3.6977,-4.25 z"
       id="path459" />
    <path
       style="fill:#000000"
       d="m 1100.9503,312.77625 c -5.8964,-8.43163 -10.3114,-15.85114 -9.6964,-16.29499 0.1354,-0.0977 7.2211,-4.8065 15.7461,-10.46402 8.525,-5.65752 17.525,-11.73488 20,-13.50525 2.475,-1.77037 6.5584,-4.40623 9.0743,-5.85747 l 4.5743,-2.63861 4.888,6.74205 c 5.1875,7.15509 10.6325,14.96758 11.7925,16.91993 0.4553,0.76631 -8.0601,6.9686 -24.3696,17.75 C 1119.1713,314.54255 1107.78,322 1107.6454,322 c -0.1346,0 -3.1474,-4.15069 -6.6951,-9.22375 z"
       id="path457" />
    <path
       style="fill:#000000"
       d="m 695.5,319.55444 c -2.75,-1.30488 -7.25,-3.3558 -10,-4.5576 -2.75,-1.20179 -9.05,-4.0986 -14,-6.43735 -10.1316,-4.78693 -14.31852,-6.67649 -19.75,-8.91318 -3.92417,-1.61598 -4.39427,-2.53499 -2.76732,-5.40988 1.31851,-2.32984 10.32708,-21.90325 11.96013,-25.98643 0.71491,-1.7875 1.90768,-3.25 2.65061,-3.25 0.74293,0 13.22073,5.73412 27.72845,12.74248 l 26.37767,12.74248 -1.26078,3.00752 c -0.69343,1.65414 -2.04115,3.16559 -2.99492,3.3588 -1.19352,0.24176 -1.36452,0.57971 -0.54852,1.08403 1.49092,0.92143 -9.23586,24.08271 -11.12826,24.02817 -0.69688,-0.0201 -3.51706,-1.10415 -6.26706,-2.40904 z"
       id="path455" />
    <path
       style="fill:#000000"
       d="m 807.01389,324.87938 c -14.56736,-6.61004 -26.56736,-12.09952 -26.66667,-12.19883 -0.0993,-0.0993 2.48193,-5.73365 5.7361,-12.52075 C 789.3375,293.37271 792,287.41021 792,286.90981 c 0,-1.67966 2.84415,-0.93282 9.86397,2.59019 3.8357,1.925 7.19077,3.5 7.45572,3.5 0.26495,0 4.2389,1.74476 8.83102,3.87725 15.15492,7.03765 17.72454,8.12275 19.23541,8.12275 0.82271,0 1.77818,0.45682 2.12324,1.01515 0.34507,0.55833 2.20484,1.67425 4.13282,2.47981 4.07258,1.70163 4.09439,1.50964 -1.58,13.90673 -2.03871,4.45407 -4.34657,9.56081 -5.12858,11.34831 -0.782,1.7875 -1.87447,3.22697 -2.42771,3.19882 -0.55324,-0.0282 -12.92464,-5.45939 -27.492,-12.06944 z"
       id="path453" />
    <path
       style="fill:#000000"
       d="m 757.47919,348.20882 c -0.53856,-0.46725 -8.8343,-4.41788 -18.43499,-8.77918 C 729.44351,335.06834 717.90395,329.7 713.40072,327.5 l -8.18769,-4 4.32502,-9 c 2.37877,-4.95 5.70039,-12.08773 7.38139,-15.86163 1.97409,-4.43189 3.50328,-6.6697 4.31846,-6.31962 5.05226,2.16969 54.28445,23.94887 54.36874,24.05146 0.0587,0.0714 -3.18314,7.32979 -7.20398,16.12979 -6.94379,15.19714 -8.66323,17.66983 -10.92347,15.70882 z"
       id="path451" />
    <path
       style="fill:#000000"
       d="m 1128.4905,351.75785 c -1.5321,-2.34182 -6.1311,-8.92357 -10.2198,-14.62611 -4.0888,-5.70255 -7.0599,-10.72383 -6.6024,-11.15841 0.4574,-0.43457 11.8092,-8.01777 25.2261,-16.85155 l 24.3944,-16.06142 9.8556,13.84801 c 5.4206,7.6164 9.8556,14.28581 9.8556,14.82091 0,0.53509 -10.6875,8.10156 -23.75,16.81438 -13.0625,8.71282 -24.2504,16.20836 -24.8619,16.65676 -0.7059,0.51755 -2.1292,-0.73962 -3.8976,-3.44257 z"
       id="path449" />
    <path
       style="fill:#000000"
       d="m 1045.2169,352.25 c -1.7912,-3.7125 -3.2477,-7.275 -3.2368,-7.91667 0.011,-0.64166 -0.3176,-1.31666 -0.7301,-1.5 -0.4125,-0.18333 -1.9761,-2.90762 -3.4747,-6.05397 l -2.7248,-5.72065 7.2248,-4.16471 c 13.4866,-7.77443 19.2101,-11.29236 26.7247,-16.4264 4.125,-2.81823 10.0109,-6.54054 13.0797,-8.27179 l 5.5797,-3.14773 2.1703,2.93547 c 1.1937,1.6145 2.1703,3.40369 2.1703,3.97596 0,0.57227 0.3947,1.04049 0.8771,1.04049 1.1961,0 11.3949,14.08641 11.5215,15.91322 0.1241,1.79158 -14.4826,12.02939 -32.4843,22.76802 C 1060.5366,352.46846 1049.1086,359 1048.6109,359 c -0.075,0 -1.6028,-3.0375 -3.394,-6.75 z"
       id="path447" />
    <path
       style="fill:#000000"
       d="M 370.64341,357.96704 C 370.28953,356.19767 370,353.48895 370,351.94766 370,347.02146 363.47835,336.4123 353.30778,324.79341 347.87067,318.58203 340.10811,309.45 336.05764,304.5 c -4.05046,-4.95 -9.59624,-11.31559 -12.32395,-14.14575 l -4.95946,-5.14575 3.36288,-0.70167 c 1.84959,-0.38592 6.51289,-1.75043 10.36289,-3.03225 3.85,-1.28182 10.33446,-3.30346 14.4099,-4.49255 6.686,-1.95075 7.49693,-2.00646 8.30069,-0.57021 1.08272,1.93472 10.52573,13.08118 20.8305,24.58818 C 385.91765,312.02884 392,319.84437 392,321.50646 c 0,0.72978 0.40096,1.47687 0.89103,1.66021 1.67211,0.62553 7.02282,11.71217 8.61143,17.84282 0.87182,3.36447 1.83978,8.72258 2.15102,11.90692 0.56159,5.74559 0.54411,5.79383 -2.29379,6.33031 -1.57283,0.29732 -7.13469,0.59582 -12.35969,0.66333 -5.225,0.0675 -11.34797,0.38179 -13.60659,0.69839 -3.98551,0.55866 -4.12557,0.48078 -4.75,-2.6414 z"
       id="path445" />
    <path
       style="fill:#000000"
       d="m 1507.9866,355 c -18.7595,-9.74444 -17.2943,-8.63411 -15.5706,-11.79972 4.008,-7.36072 7.6862,-16.49146 7.1775,-17.81715 -0.3138,-0.81785 -0.1916,-1.25277 0.2716,-0.96649 0.9133,0.56446 5.3626,-10.15444 7.2294,-17.41664 0.6362,-2.475 1.7752,-5.91801 2.5311,-7.65113 0.7559,-1.73312 1.3813,-3.98312 1.3897,-5 0.031,-3.73118 1.3569,-4.49453 6.0693,-3.49394 2.4284,0.51566 10.0404,1.7301 16.9154,2.69876 6.875,0.96867 12.6213,1.84913 12.7695,1.95658 0.1482,0.10745 -1.1093,5.77409 -2.7945,12.59255 -3.0421,12.30851 -10.4046,30.54337 -17.7239,43.89718 -5.8246,10.62679 -4.1207,10.34691 -18.2645,3 z"
       id="path443" />
    <path
       style="fill:#000000"
       d="m 328.18138,356.6674 c -1.74115,-3.08515 -7.72901,-10.68493 -13.30635,-16.88838 C 309.29768,333.57556 302.23202,325.125 299.17355,321 c -6.22958,-8.40192 -14.58551,-24.01641 -13.42797,-25.09248 0.88372,-0.82153 28.36844,-9.16117 28.71136,-8.71184 0.12775,0.16737 7.85198,9.30432 17.16496,20.30432 9.31298,11 19.49671,23.03036 22.6305,26.73412 7.00611,8.28037 10.27916,14.64886 11.05796,21.51588 l 0.59541,5.25 -5.70288,0.0161 c -3.13659,0.009 -10.91229,0.29614 -17.27933,0.63838 l -11.57645,0.62227 -3.16573,-5.60937 z"
       id="path441" />
    <path
       style="fill:#000000"
       d="m 879.5,357.67682 c -7.7,-3.47373 -20.34158,-9.18311 -28.09241,-12.68752 l -14.0924,-6.37164 4.39532,-9.55883 c 5.4674,-11.89037 7.60606,-16.10747 8.43759,-16.63767 1.26824,-0.80865 54.86291,23.91052 54.83735,25.29232 -0.0253,1.36685 -2.98943,9.39138 -5.0263,13.60721 -1.07753,2.23023 -1.95915,4.66779 -1.95915,5.4168 0,1.78939 -2.84737,7.26354 -3.77568,7.25886 -0.39838,-0.002 -7.02432,-2.8458 -14.72432,-6.31953 z"
       id="path439" />
    <path
       style="fill:#000000"
       d="m 815,374.27104 c -3.47122,-1.32153 -20.54113,-9.56606 -21,-10.1427 -0.275,-0.34559 -1.4,-0.77263 -2.5,-0.94899 -5.61035,-0.89946 -7.5,-1.49202 -7.5,-2.35187 0,-0.52003 -0.45,-0.6674 -1,-0.32748 -0.55,0.33992 -1,0.2161 -1,-0.27515 0,-0.49126 -4.1625,-2.84623 -9.25,-5.23328 -5.0875,-2.38706 -9.36841,-4.41759 -9.51313,-4.51229 -0.14472,-0.0947 0.44415,-1.86493 1.30858,-3.93383 0.86444,-2.06889 1.34745,-3.98588 1.07335,-4.25998 -0.2741,-0.2741 0.34213,-1.40053 1.36939,-2.50317 1.02727,-1.10264 3.81267,-6.44461 6.18978,-11.87105 2.37712,-5.42644 4.72099,-9.87637 5.2086,-9.88875 0.48761,-0.0124 12.98371,5.45891 27.7691,12.1584 18.25757,8.2728 26.55556,12.50787 25.86343,13.2 -0.56051,0.56051 -1.0191,1.55301 -1.0191,2.20557 0,0.65256 -2.04227,5.5276 -4.53837,10.83341 -2.4961,5.30582 -4.26954,10.08191 -3.94098,10.61353 0.32856,0.53163 0.20417,0.96659 -0.27642,0.96659 -0.48059,0 -1.62487,1.575 -2.54284,3.5 -1.69955,3.564 -2.0602,3.77657 -4.70139,2.77104 z"
       id="path437" />
    <path
       style="fill:#000000"
       d="m 1539.7608,371.62911 c -7.5565,-3.92101 -13.744,-7.52025 -13.75,-7.9983 -0.01,-0.47805 1.5714,-3.47384 3.5053,-6.6573 6.7817,-11.16388 16.0861,-33.89671 19.4649,-47.55701 l 3.236,-13.0835 5.1415,0.83106 c 2.8278,0.45709 9.6033,1.50641 15.0565,2.33184 5.4533,0.82542 10.0872,1.67295 10.2976,1.88338 0.4731,0.47309 -4.1259,18.80839 -6.9281,27.62072 -5.2217,16.42161 -19.8893,50.21438 -21.6497,49.87911 -0.3491,-0.0665 -6.8174,-3.329 -14.374,-7.25 z"
       id="path435" />
    <path
       style="fill:#000000"
       d="m 973.773,376.28234 c -0.23844,-2.63029 -0.53342,-9.56359 -0.6555,-15.40734 -0.21907,-10.48623 -0.1919,-10.62507 2.08026,-10.6302 3.47649,-0.008 22.80869,-3.38305 25.80224,-4.5048 0.825,-0.30914 3.6833,-1.07013 6.3518,-1.69108 2.6685,-0.62095 8.2935,-2.85173 12.5,-4.95728 12.1363,-6.07483 11.2882,-6.19544 15.1097,2.14864 1.8287,3.99284 4.6766,10.08108 6.3286,13.52941 1.6521,3.44834 2.8252,6.43387 2.6069,6.63453 -1.4134,1.29897 -19.6832,9.8379 -24.522,11.46111 -8.0934,2.71493 -28.29087,6.78316 -37.52173,7.55772 l -7.64674,0.64164 z"
       id="path433" />
    <path
       style="fill:#000000"
       d="m 946,380.03926 c -9.63152,-0.51111 -13.36848,-1.23045 -23,-4.42738 -6.325,-2.09942 -14.74462,-5.17391 -18.71027,-6.83221 l -7.21028,-3.01509 1.96028,-3.84245 C 900.11788,359.80878 901,357.38675 901,356.53984 901,355.69293 901.45,355 902,355 c 0.55,0 1,-0.82356 1,-1.83013 0,-1.00657 1.08506,-4.49407 2.41124,-7.75 2.85036,-6.99794 3.49967,-7.15566 12.58876,-3.05794 3.575,1.61175 8.05378,3.11033 9.95285,3.33017 1.89907,0.21984 3.92407,0.78002 4.5,1.24484 1.77285,1.43083 15.59455,3.94319 24.54715,4.46191 4.675,0.27088 8.57675,0.51695 8.67054,0.54683 0.88441,0.28171 2.00897,21.87821 1.44782,27.80432 -0.12657,1.3367 -1.12271,1.35034 -21.11836,0.28926 z"
       id="path431" />
    <path
       style="fill:#000000"
       d="m 1058.3646,379.44978 c -4.1786,-8.55262 -7.4326,-15.69731 -7.231,-15.87708 0.2015,-0.17977 2.3914,-1.33595 4.8664,-2.56929 7.6162,-3.79526 30.9338,-18.01722 42.1647,-25.71718 l 10.6647,-7.3118 4.5963,6.76279 c 2.528,3.71953 7.0957,10.29599 10.1504,14.61435 3.0548,4.31837 5.4123,7.95847 5.239,8.0891 -0.9974,0.75185 -23.1943,14.95075 -31.0418,19.85674 -10.9027,6.8161 -29.9397,17.66217 -31.0422,17.68598 -0.423,0.009 -4.1879,-6.98099 -8.3665,-15.53361 z"
       id="path429" />
    <path
       style="fill:#000000"
       d="m 876,402.39983 c -1.375,-0.77952 -6.325,-3.14993 -11,-5.26756 -4.675,-2.11764 -15.94881,-7.28871 -25.05291,-11.49126 C 830.843,381.43845 822.9106,378 822.31954,378 c -0.59106,0 -1.59124,-0.62245 -2.22262,-1.38322 -0.88936,-1.07161 -0.78093,-1.52406 0.48131,-2.00843 0.91856,-0.35248 1.38445,-1.26323 1.06801,-2.08784 -0.30869,-0.80445 0.0248,-2.04866 0.74103,-2.76492 0.71626,-0.71626 3.21607,-5.34179 5.55512,-10.27894 2.33906,-4.93716 4.66172,-9.12758 5.16146,-9.31206 0.49973,-0.18448 0.716,-0.64706 0.48059,-1.02796 -0.23541,-0.3809 0.33796,-1.70802 1.27415,-2.94916 l 1.70217,-2.25661 27.96962,12.68011 c 15.38329,6.97406 28.06909,12.75159 28.19066,12.83894 0.12157,0.0874 -2.27067,6.65937 -5.31609,14.60446 -3.04541,7.9451 -6.0014,15.68313 -6.56886,17.19563 -1.15803,3.08661 -1.34246,3.13046 -4.83609,1.14983 z"
       id="path427" />
    <path
       style="fill:#000000"
       d="m 1482.25,416.41556 c -1.7875,-0.78171 -3.25,-1.77298 -3.25,-2.20282 0,-0.42984 -1.4625,-1.62206 -3.25,-2.64938 -6.8772,-3.95252 -17.7189,-11.09139 -17.7341,-11.67726 -0.016,-0.60643 11.3123,-18.80444 20.1598,-32.3861 2.508,-3.85 6.0125,-9.5875 7.7876,-12.75 1.7752,-3.1625 3.4712,-5.75 3.7689,-5.75 0.5393,0 28.4249,13.96252 29.1478,14.59451 0.8709,0.76136 -32.0629,54.72154 -33.1558,54.32392 -0.1233,-0.0449 -1.6867,-0.72116 -3.4742,-1.50287 z"
       id="path425" />
    <path
       style="fill:#000000"
       d="m 974.87238,416.75 c -0.0702,-2.8875 -0.25539,-6.375 -0.41155,-7.75 -0.15615,-1.375 -0.38653,-7 -0.51195,-12.5 l -0.22802,-10 6.38957,-0.75746 c 25.21357,-2.989 39.31097,-6.54766 54.59807,-13.78242 l 12.2085,-5.77779 7.5537,15.48466 c 4.1545,8.51657 7.3269,15.85146 7.0498,16.29977 -0.6976,1.12887 -15.8408,8.44869 -22.5205,10.88584 -12.5082,4.56372 -37.4083,10.63114 -39.1674,9.54394 -0.50612,-0.3128 -1.463,-0.12429 -2.1264,0.41889 -1.0609,0.86864 -16.24597,3.17417 -20.9562,3.18175 -1.42863,0.002 -1.77344,-0.96129 -1.87762,-5.24718 z"
       id="path423" />
    <path
       style="fill:#000000"
       d="m 946,422.28534 c -6.37507,-0.51744 -25.26213,-4.09541 -33.26835,-6.30236 -8.41581,-2.31986 -23.90713,-7.91896 -25.18165,-9.10152 C 887.0275,406.39666 885.77588,406 884.76862,406 c -2.55604,0 -3.20515,-2.40337 -1.39612,-5.16921 0.83846,-1.28194 3.81369,-8.38433 6.61163,-15.7831 2.79793,-7.39877 5.24018,-13.60533 5.42721,-13.79236 0.18703,-0.18703 2.8828,0.78447 5.9906,2.15889 3.10781,1.37441 10.45435,3.87602 16.32565,5.55912 5.8713,1.6831 10.92199,3.39013 11.22375,3.79342 0.30176,0.40328 1.89866,0.8291 3.54866,0.94626 27.43236,1.94784 34.02362,2.47727 34.30154,2.75519 0.18148,0.18148 0.59082,8.47537 0.90964,18.43088 L 968.29085,423 959.39543,422.82529 C 954.50294,422.7292 948.475,422.48622 946,422.28534 Z"
       id="path421" />
    <path
       style="fill:#000000"
       d="m 1503.7622,429.72387 c -7.0057,-4.52313 -12.7432,-8.57863 -12.75,-9.01223 -0.01,-0.4336 2.6094,-4.7086 5.8136,-9.5 3.2042,-4.7914 10.4663,-16.58664 16.138,-26.21164 5.6717,-9.625 10.4995,-17.71185 10.7283,-17.97079 0.2289,-0.25893 6.9168,2.79795 14.862,6.79307 12.7763,6.42433 16.4186,9.18448 13.6504,10.34439 -0.4376,0.18333 -2.9551,4.09863 -5.5946,8.70067 -2.6394,4.60203 -6.669,11.22276 -8.9545,14.71272 -2.2855,3.48997 -7.5304,11.74314 -11.6554,18.34039 -4.125,6.59724 -7.95,12.00226 -8.5,12.01114 -0.55,0.009 -6.732,-3.68459 -13.7378,-8.20772 z"
       id="path419" />
    <path
       style="fill:#000000"
       d="m 336.50594,454.00657 c -0.99221,-1.09639 -6.26413,-5.47005 -11.71538,-9.71926 -8.29561,-6.46636 -9.65951,-7.90997 -8.3665,-8.85544 0.84967,-0.62129 1.37005,-1.31013 1.1564,-1.53075 -0.21364,-0.22061 0.87127,-4.14615 2.41093,-8.72341 1.53965,-4.57726 2.70874,-9.63135 2.59797,-11.23133 -0.11076,-1.59997 0.17627,-3.03492 0.63786,-3.18879 0.46159,-0.15386 1.05347,-2.74976 1.31531,-5.76867 0.26183,-3.01891 1.61825,-10.88892 3.01426,-17.48892 3.16923,-14.9833 3.71403,-19.5 2.35208,-19.5 -0.57845,0 -0.35751,-0.69422 0.49098,-1.54271 1.18558,-1.18558 4.73242,-1.65763 15.32143,-2.03915 7.5783,-0.27305 15.28043,-0.6819 17.11586,-0.90857 l 3.33713,-0.41211 -0.64893,5.20127 c -2.39824,19.22223 -5.09972,35.27451 -8.19607,48.70127 -2.94393,12.76581 -4.37001,16.91119 -8.0844,23.5 -2.48047,4.4 -5.43379,9.6875 -6.56293,11.75 -2.32665,4.24987 -3.5935,4.61019 -6.176,1.75657 z"
       id="path417" />
    <path
       style="fill:#000000"
       d="m 1441.3594,465.18572 c -4.8727,-3.19786 -10.9983,-7.06646 -13.6126,-8.59691 l -4.7532,-2.78262 2.7532,-4.93456 c 1.5143,-2.71401 3.8782,-6.21248 5.2532,-7.77437 1.375,-1.5619 2.6161,-3.35855 2.758,-3.99257 0.1419,-0.63401 2.3565,-4.40444 4.9214,-8.37872 12.0537,-18.67738 16.9021,-25.65526 17.8495,-25.68916 0.5658,-0.0202 4.7474,2.43819 9.2924,5.46319 4.5449,3.025 8.9194,5.5 9.7211,5.5 0.8017,0 1.4576,0.45 1.4576,1 0,0.55 0.4268,1 0.9485,1 0.5216,0 2.1446,1.1085 3.6064,2.46334 l 2.658,2.46335 -16.3084,25.03665 C 1458.9349,459.7335 1451.2862,471 1450.9075,471 c -0.3788,0 -4.6754,-2.61643 -9.5481,-5.81428 z"
       id="path415" />
    <path
       style="fill:#000000"
       d="m 368.33077,479.86923 c -0.64308,-0.56692 -2.59019,-2.34442 -4.32692,-3.95 C 362.26712,474.31365 360.60916,473 360.3195,473 c -0.28966,0 -3.08839,-2.1375 -6.21941,-4.75 -3.13101,-2.6125 -6.6816,-5.425 -7.89019,-6.25 l -2.19745,-1.5 7.01593,-12.38887 c 6.14789,-10.85605 7.44195,-14.08051 10.4591,-26.06143 3.20341,-12.7205 7.95231,-40.4265 9.08392,-52.99726 0.26971,-2.99615 0.58898,-5.52987 0.70949,-5.63048 0.12051,-0.10061 7.57864,-0.47384 16.57363,-0.82939 l 16.35452,-0.64645 -0.60322,6.27694 c -0.64164,6.67683 -1.44145,11.4819 -4.03339,24.2318 -2.79739,13.76046 -5.75556,30.94503 -5.7745,33.54514 -0.01,1.375 -0.36826,2.95 -0.7961,3.5 -0.42784,0.55 -1.0847,3.28397 -1.4597,6.0755 C 390.2928,444.87578 375.65049,478 372.78871,478 372.35492,478 372,478.675 372,479.5 c 0,1.70709 -1.93122,1.90143 -3.66923,0.36923 z"
       id="path413" />
    <path
       style="fill:#000000"
       d="m 274.29615,484.25 c -0.96247,-1.5125 -2.00011,-2.975 -2.30587,-3.25 C 270.90813,480.02669 265,470.31277 265,469.50684 c 0,-0.44993 -1.19774,-2.38838 -2.66165,-4.30766 -2.55285,-3.34696 -2.58592,-3.54499 -0.80887,-4.84439 1.69238,-1.2375 3.87336,-1.73273 4.86553,-1.10479 0.21726,0.1375 1.28063,-0.55147 2.36304,-1.53104 2.0034,-1.81305 5.02454,-2.86295 8.89646,-3.09168 1.18498,-0.07 1.94396,-0.46796 1.68662,-0.88434 -0.25734,-0.41639 0.34813,-1.01969 1.34549,-1.34068 0.99736,-0.32099 2.71338,-0.93955 3.81338,-1.37459 9.15562,-3.62092 16.44583,-6.04559 18.75073,-6.23635 1.5121,-0.12514 2.74927,-0.50716 2.74927,-0.84891 0,-0.34176 1.15582,-1.14801 2.56849,-1.79166 2.39574,-1.09157 3.15242,-0.67829 11.25,6.14455 4.77483,4.02315 10.4126,8.61421 12.52839,10.20234 3.6217,2.7185 3.73877,2.96887 2,4.27735 -3.98207,2.99661 -17.44038,9.18893 -29.34688,13.50281 -6.875,2.4909 -15.99921,5.9224 -20.27603,7.62556 -4.27682,1.70315 -7.97894,3.09664 -8.22695,3.09664 -0.248,0 -1.23839,-1.2375 -2.20087,-2.75 z"
       id="path411" />
    <path
       style="fill:#000000"
       d="m 1470.8446,484.16221 c -6.4104,-4.21422 -12.4448,-8.13564 -13.4098,-8.71429 -1.5608,-0.93603 0.056,-3.83072 14.6554,-26.2431 9.0254,-13.85506 16.7177,-25.19413 17.094,-25.19792 0.3762,-0.004 5.8355,3.2556 12.1316,7.2431 6.2961,3.9875 12.2564,7.72897 13.2451,8.31437 1.6494,0.97658 1.3911,1.69278 -3.1316,8.68359 -2.7111,4.19057 -9.4293,14.67324 -14.9293,23.29483 -5.5,8.62159 -10.9,16.71197 -12,17.97862 l -2,2.30301 z"
       id="path409" />
    <path
       style="fill:#000000"
       d="m 208,514.07614 c 0,-0.63642 -0.84958,-2.3764 -1.88796,-3.86663 -2.14386,-3.07675 -7.77772,-11.98434 -10.8985,-17.2314 l -2.09471,-3.5219 5.19059,-2.57649 c 2.85482,-1.41708 7.21558,-3.48141 9.69058,-4.58741 2.475,-1.106 6.525,-2.94409 9,-4.08464 8.05481,-3.71188 14.23073,-6.20754 15.37712,-6.21383 0.61758,-0.003 2.47288,-0.71878 4.12288,-1.58975 1.65,-0.87097 3.86693,-1.75766 4.92651,-1.97041 1.05957,-0.21276 2.29018,-0.95987 2.73468,-1.66025 0.4445,-0.70039 0.81508,-0.94707 0.8235,-0.54818 0.0154,0.7278 1.34782,0.30104 8.22034,-2.63283 l 3.70502,-1.58168 4.79498,7.17944 c 5.17778,7.75263 11.12653,17.84847 11.23056,19.05982 0.0354,0.4125 -0.35157,0.75 -0.85998,0.75 -0.50841,0 -14.34591,5.67285 -30.75,12.60632 C 208.0408,515.67474 208,515.69001 208,514.07614 Z"
       id="path407" />
    <path
       style="fill:#000000"
       d="m 294.64002,516.75 c -1.83432,-2.8875 -6.09999,-9.6551 -9.47926,-15.0391 l -6.14413,-9.7891 4.5306,-1.94205 c 2.49184,-1.06812 11.99028,-4.67115 21.10765,-8.00672 15.26821,-5.58585 25.81308,-10.32829 32.49113,-14.61254 2.59877,-1.66722 2.74157,-1.62887 7.99944,2.14854 8.16312,5.86461 20.85455,16.55853 20.85455,17.57223 0,0.49599 -0.9,1.46385 -2,2.15081 -1.1,0.68696 -2,1.62292 -2,2.07991 0,0.45698 -0.675,1.50588 -1.5,2.33088 -0.825,0.825 -1.5,1.21071 -1.5,0.85714 0,-0.35357 -0.61234,-0.0482 -1.36075,0.67857 -4.53431,4.40329 -9.27673,7.3888 -18.13925,11.41927 -5.5,2.50127 -10.85858,5.01321 -11.90796,5.58209 -1.04938,0.56887 -4.64938,1.83095 -8,2.80462 -3.35062,0.97366 -9.24009,2.95046 -13.08771,4.39287 -3.84761,1.44242 -7.3407,2.62258 -7.76242,2.62258 -0.42171,0 -2.26756,-2.3625 -4.10189,-5.25 z"
       id="path405" />
    <path
       style="fill:#000000"
       d="m 1402.7316,515.26559 c -9.0511,-5.74301 -13.589,-9.19484 -13.2498,-10.07881 0.2838,-0.73942 2.2039,-3.81234 4.2671,-6.82871 2.0631,-3.01637 4.8761,-7.26648 6.2511,-9.4447 8.6168,-13.65042 18.4232,-28.82298 19.8604,-30.72829 l 1.6821,-2.23002 13.4787,8.55401 c 7.4134,4.7047 13.6119,8.93912 13.7746,9.40983 0.1627,0.47071 -3.0079,5.96902 -7.0458,12.21847 -4.0379,6.24944 -11.0705,17.32513 -15.628,24.61263 -4.5575,7.2875 -8.5875,13.25 -8.9555,13.25 -0.368,0 -6.8637,-3.93048 -14.4349,-8.73441 z"
       id="path403" />
    <path
       style="fill:#000000"
       d="m 1436,536.41391 c -6.325,-4.1549 -12.1024,-7.90046 -12.8386,-8.32348 -0.9979,-0.57335 2.5245,-6.85545 13.8378,-24.67978 8.3471,-13.15086 15.7646,-24.52221 16.4834,-25.26968 1.0939,-1.13758 2.798,-0.40433 10.4579,4.5 5.033,3.22247 11.0864,7.20903 13.4519,8.85903 l 4.3009,3 -5.5967,8.57124 c -3.0781,4.71419 -10.2487,15.85169 -15.9346,24.75 -5.6859,8.89832 -10.8609,16.17162 -11.5,16.1629 -0.6391,-0.009 -6.337,-3.41533 -12.662,-7.57023 z"
       id="path401" />
    <path
       style="fill:#000000"
       d="M 227.64158,544.51538 C 225.63871,541.49885 224,538.72178 224,538.34412 c 0,-0.37765 -0.71552,-1.47728 -1.59005,-2.44362 -1.47911,-1.6344 -10.38005,-16.25603 -10.05603,-16.51911 C 213.05113,518.81528 275.40718,493 276.07739,493 c 0.48508,0 1.79169,1.6875 2.90358,3.75 1.11189,2.0625 5.33803,8.925 9.39143,15.25 7.02489,10.96176 7.27054,11.54151 5.24871,12.38681 -1.16661,0.48774 -4.37111,1.90186 -7.12111,3.14249 -2.75,1.24063 -6.8,2.82026 -9,3.51029 -2.2,0.69003 -5.56834,2.08841 -7.48519,3.10751 -1.91686,1.01909 -4.04584,1.8529 -4.73107,1.8529 -0.68523,0 -4.06689,1.32495 -7.51481,2.94433 C 251.73465,541.77844 232.28145,550 231.60988,550 c -0.1797,0 -1.96543,-2.46808 -3.9683,-5.48462 z"
       id="path399" />
    <path
       style="fill:#000000"
       d="m 131.5,550.46466 c -4.95,-3.56021 -9.15,-6.92122 -9.33333,-7.46889 C 121.98333,542.4481 121.29584,542 120.63891,542 c -0.65694,0 -1.90004,-0.8241 -2.76246,-1.83133 -1.42485,-1.6641 -1.42231,-2.01353 0.0278,-3.82662 0.87768,-1.09742 2.4901,-3.19832 3.58314,-4.66868 1.09304,-1.47035 2.45616,-2.67337 3.02916,-2.67337 0.57299,0 2.66789,-1.57941 4.65532,-3.5098 2.3497,-2.28226 4.17964,-3.29256 5.23218,-2.88866 1.19246,0.45759 1.45586,0.19686 1.00034,-0.9902 C 134.99382,520.54151 135.32607,520 136.39301,520 137.27686,520 138,519.64702 138,519.21561 c 0,-0.43142 1.33363,-1.57219 2.96361,-2.53504 1.62999,-0.96286 3.54249,-2.31446 4.25,-3.00355 C 146.74593,512.18459 153.34218,509 154.90113,509 155.50551,509 156,508.63018 156,508.17818 c 0,-0.45201 4.3875,-3.01366 9.75,-5.69257 5.3625,-2.67891 10.08061,-5.34659 10.48469,-5.92818 0.40408,-0.58159 0.74158,-0.73697 0.75,-0.3453 0.008,0.39166 2.90611,-0.79467 6.43932,-2.6363 l 6.42401,-3.34842 3.07599,3.82765 c 1.69179,2.10522 3.07599,4.24336 3.07599,4.75144 0,0.50808 0.84533,1.99844 1.87851,3.31192 1.03318,1.31347 2.79086,4.01251 3.90596,5.99785 1.1151,1.98535 2.61524,4.55091 3.33364,5.70125 0.7184,1.15034 1.09821,2.22449 0.84404,2.387 -2.87008,1.83502 -17.67973,8.94104 -18.35035,8.80493 -0.4885,-0.0992 -1.1635,0.21867 -1.5,0.70627 -1.2905,1.87 -12.25635,7.31558 -13.40448,6.65659 -0.66403,-0.38113 -0.87123,-0.32223 -0.46046,0.13089 1.01982,1.12496 -15.02741,11.75046 -16.43365,10.88136 -0.65178,-0.40283 -0.84524,-0.24541 -0.46149,0.37552 0.36341,0.58801 -0.80456,1.9792 -2.59549,3.09154 -1.79093,1.11234 -5.03506,3.85077 -7.20918,6.08541 -2.17412,2.23463 -4.19912,4.04897 -4.5,4.03187 -0.30088,-0.0171 -4.59705,-2.94402 -9.54705,-6.50424 z"
       id="path397" />
    <path
       style="fill:#000000"
       d="m 1380,575.52876 c -1.925,-1.24235 -8.225,-5.29723 -14,-9.01085 -5.775,-3.71362 -10.672,-6.9089 -10.8823,-7.10063 -0.554,-0.50514 7.2404,-12.39813 8.1323,-12.40853 0.4125,-0.005 0.75,-0.50536 0.75,-1.11233 0,-1.26393 21.7381,-35.61653 23.0516,-36.42832 0.8075,-0.49906 10.1626,4.95159 22.9484,13.37064 3.025,1.99187 5.6342,3.68968 5.7982,3.77291 0.3273,0.16617 -30.5461,49.49266 -31.6281,50.53214 -0.3685,0.35408 -2.2451,-0.37268 -4.1701,-1.61503 z"
       id="path395" />
    <path
       style="fill:#000000"
       d="m 172.48293,578.97239 c -0.8165,-1.32113 -11.79345,-8.48844 -12.37113,-8.07763 -0.2135,0.15183 -0.69155,-0.21479 -1.06233,-0.81471 -0.37077,-0.59992 -3.43863,-3.03743 -6.81746,-5.41668 l -6.14333,-4.3259 4.70566,-4.5789 c 6.25858,-6.08997 24.32404,-17.64559 42.34778,-27.08786 C 201.19529,524.45182 208.18735,521 208.68003,521 c 1.0014,0 10.51392,13.93644 12.96873,19 0.39995,0.825 2.2176,3.63288 4.03922,6.23974 1.82161,2.60686 3.31202,4.88537 3.31202,5.06336 0,0.17798 -1.6875,0.9701 -3.75,1.76025 -2.0625,0.79016 -9.75892,4.47202 -17.10316,8.18191 -7.34424,3.70989 -13.82627,6.45287 -14.40451,6.09549 -0.60479,-0.37378 -0.75598,-0.17185 -0.35594,0.47542 0.42066,0.68064 -0.30848,1.37716 -1.84549,1.76292 -1.3975,0.35075 -2.5409,0.99599 -2.5409,1.43386 0,1.25813 -10.97547,7.12024 -12.06746,6.44536 -0.54015,-0.33383 -0.85844,-0.0377 -0.70732,0.65797 0.35386,1.62897 -2.8164,2.35422 -3.74229,0.85611 z"
       id="path393" />
    <path
       style="fill:#000000"
       d="m 1407.5,592.94386 c -3.3,-2.19978 -8.8046,-5.67456 -12.2325,-7.72173 -3.4279,-2.04717 -6.2404,-4.10235 -6.25,-4.56707 -0.026,-1.2494 31.1417,-50.65506 31.9557,-50.65506 0.3824,0 3.2648,1.8 6.4054,4 3.1406,2.2 5.9399,4 6.2207,4 0.8427,0 12.23,7.91486 12.8647,8.94175 0.5367,0.86846 -2.1405,5.2658 -18.1164,29.75579 -2.9412,4.50865 -5.3476,8.67115 -5.3476,9.25 0,0.57885 -0.3555,1.05246 -0.7899,1.05246 -0.4345,0 -2.104,2.25 -3.7101,5 -1.6061,2.75 -3.3881,4.98728 -3.9601,4.97173 -0.5719,-0.0155 -3.7399,-1.82809 -7.0399,-4.02787 z"
       id="path391" />
    <path
       style="fill:#000000"
       d="m 1334.3057,621.49619 -14.174,-9.5038 5.1151,-7.7462 c 8.7031,-13.17973 16.1985,-24.67646 17.4444,-26.75698 5.0851,-8.49178 9.9735,-15.46093 10.8088,-15.4097 0.55,0.0337 3.7,1.81586 7,3.96029 3.3,2.14443 9.0128,5.74934 12.695,8.0109 3.6823,2.26156 7.2115,4.73418 7.8427,5.49472 0.9099,1.09636 -2.2375,6.56726 -15.195,26.41219 -8.9885,13.76618 -16.5722,25.03233 -16.8528,25.0359 -0.2805,0.004 -6.8884,-4.27022 -14.6842,-9.49732 z"
       id="path389" />
    <path
       style="fill:#000000"
       d="m 70.694538,639.77555 c 0.281094,-2.35155 1.165035,-6.91283 1.964314,-10.13617 0.799279,-3.22335 1.20692,-6.10694 0.905867,-6.40799 -0.301052,-0.30106 -0.156419,-1.03878 0.321407,-1.63938 0.797804,-1.0028 4.121399,-13.09191 4.561556,-16.59201 0.103748,-0.825 0.774703,-2.85 1.491011,-4.5 0.716308,-1.65 1.424359,-3.92912 1.573447,-5.06472 0.149088,-1.13559 1.891057,-5.52486 3.871042,-9.75394 1.979985,-4.22907 3.669136,-8.02495 3.753669,-8.43528 0.08453,-0.41033 1.133699,-2.32106 2.33148,-4.24606 1.19778,-1.925 2.479229,-4.31602 2.847663,-5.31338 0.387957,-1.05021 1.158735,-1.51126 1.831452,-1.09549 0.708672,0.43798 0.892155,0.28196 0.470588,-0.40015 -0.380041,-0.61492 0.02986,-1.92194 0.910892,-2.90451 0.881031,-0.98256 2.629154,-3.36147 3.884724,-5.28647 1.25557,-1.925 2.78495,-3.3929 3.39861,-3.262 0.61367,0.13091 0.85881,-0.43159 0.54476,-1.25 -0.31405,-0.8184 -0.0617,-1.488 0.56074,-1.488 0.62246,0 1.55947,-1.125 2.08224,-2.5 0.52277,-1.375 1.66319,-2.5 2.53427,-2.5 0.87107,0 1.30614,-0.44921 0.96681,-0.99825 -0.33932,-0.54903 0.13949,-2.01153 1.06403,-3.25 0.95022,-1.27286 1.44265,-1.54019 1.13275,-0.61493 -0.39126,1.16816 -0.0684,1.51134 1.12747,1.19861 0.92164,-0.24102 4.02194,1.27242 6.88956,3.36318 6.47255,4.71908 14.3348,10.20189 16.16323,11.27156 0.75796,0.44342 1.06436,1.31388 0.6809,1.93434 -0.38347,0.62046 -1.12727,0.86233 -1.65289,0.53747 -0.52563,-0.32485 -0.83203,-0.1827 -0.68091,0.3159 0.15113,0.49859 -0.70648,1.99454 -1.90579,3.32433 -1.19932,1.32978 -3.60715,4.10383 -5.35075,6.16454 -1.77601,2.09904 -3.67558,3.45779 -4.31942,3.08968 -0.63209,-0.36139 -0.81391,-0.28709 -0.40404,0.16513 0.40986,0.45221 -0.37187,2.28677 -1.73719,4.0768 -2.81558,3.69141 -8.37349,15.48977 -10.94751,23.23943 -1.04457,3.14491 -2.14961,4.93616 -2.79797,4.53546 -0.61747,-0.38162 -0.78195,-0.19366 -0.38814,0.44354 0.37589,0.6082 -0.49908,5.29023 -1.94436,10.40451 -1.44529,5.11429 -3.40558,13.3487 -4.35619,18.2987 l -1.7284,9 -15.081,0.27555 -15.081001,0.27555 z"
       id="path387" />
    <path
       style="fill:#000000"
       d="m 118.66036,644.26972 -12.83963,-0.33081 0.71131,-5.21946 c 1.37815,-10.11255 8.86225,-35.86604 10.62304,-36.55486 0.47156,-0.18448 0.62212,-0.71607 0.33458,-1.18132 -0.46965,-0.75992 2.2639,-7.74471 3.51567,-8.98327 0.27794,-0.275 1.13489,-2.29901 1.90434,-4.4978 1.61056,-4.60236 11.89211,-16.74274 13.39343,-15.81488 0.55325,0.34194 0.73003,0.1753 0.39283,-0.37031 -0.33721,-0.5456 1.18001,-2.74292 3.37158,-4.88293 3.40193,-3.3219 4.23679,-3.71035 5.70858,-2.65614 0.94815,0.67913 2.39891,1.5366 3.22391,1.90548 0.825,0.36888 1.725,0.98017 2,1.35842 0.275,0.37825 5.3466,3.93889 11.27023,7.91254 l 10.77024,7.2248 -2.58529,3.16041 C 162.50666,595.05632 155.5,604.73152 155.5,605.99057 c 0,0.50019 -0.5625,1.47193 -1.25,2.15943 -0.6875,0.6875 -1.25,1.55504 -1.25,1.92788 0,0.37283 -0.76423,2.42033 -1.69828,4.55 -0.93406,2.12966 -1.80997,4.92199 -1.94647,6.20516 -0.13651,1.28317 -0.67032,2.85817 -1.18625,3.5 -0.51594,0.64183 -1.44003,3.30446 -2.05353,5.91696 -3.5107,14.94962 -2.90455,13.74861 -6.94645,13.76365 -2.01796,0.008 -4.56902,0.14263 -5.66902,0.30027 -1.1,0.15763 -7.77784,0.13774 -14.83964,-0.0442 z"
       id="path385" />
    <path
       style="fill:#000000"
       d="m 1367,642.87417 c -6.875,-4.46157 -12.6704,-8.26635 -12.8787,-8.45505 -0.2082,-0.18871 4.7116,-8.12271 10.9329,-17.63111 6.2213,-9.50841 13.7125,-20.96972 16.647,-25.46958 l 5.3356,-8.18157 3.7434,2.18157 c 7.5862,4.42108 22.2104,14.20222 22.215,14.85816 0,0.37213 -2.2809,4.12816 -5.0746,8.34673 -2.7936,4.21858 -8.1053,12.46411 -11.8037,18.32341 -10.2023,16.16326 -15.5307,24.15401 -16.1013,24.14633 -0.2836,-0.004 -6.1406,-3.65732 -13.0156,-8.11889 z"
       id="path383" />
    <path
       style="fill:#000000"
       d="m 1302.5,675.87819 c -6.6,-4.34627 -13.0125,-8.33575 -14.25,-8.8655 -1.2375,-0.52975 -2.25,-1.20254 -2.25,-1.49509 0,-0.83732 15.5668,-24.81754 17.3762,-26.7676 0.8931,-0.9625 1.6244,-2.0875 1.6251,-2.5 7e-4,-0.4125 1.69,-3.225 3.7539,-6.25 2.064,-3.025 4.3337,-6.625 5.0438,-8 0.7101,-1.375 2.1169,-3.58751 3.1261,-4.9167 l 1.835,-2.41669 14.565,9.41669 14.565,9.4167 -1.6444,2.5 c -0.9044,1.375 -7.9031,12.175 -15.5525,24 -7.6494,11.825 -14.4222,22.01311 -15.0506,22.64025 -0.8559,0.85414 -4.1537,-0.84263 -13.1426,-6.76206 z"
       id="path381" />
    <path
       style="fill:#000000"
       d="m 1332.75,695.44545 c -7.0125,-4.62068 -12.75,-8.88774 -12.75,-9.48236 0,-0.59462 0.45,-0.80301 1,-0.46309 0.55,0.33992 1,-0.0784 1,-0.92961 0,-1.58343 28.4301,-46.10017 30.1008,-47.13268 0.8417,-0.52019 25.8992,15.19364 25.8992,16.24164 0,0.99421 -2.6515,5.3829 -10.4647,17.32065 -4.4996,6.875 -11.0733,17.09984 -14.6082,22.72186 -3.5349,5.62203 -6.6521,10.20003 -6.9271,10.17334 -0.275,-0.0267 -6.2375,-3.82908 -13.25,-8.44975 z"
       id="path379" />
    <path
       style="fill:#000000"
       d="M 125.33795,721.15969 C 119.63692,714.28023 111.7397,695.5312 108.995,682.3594 c -2.23827,-10.74151 -4.34374,-29.9861 -3.44054,-31.44752 0.57225,-0.92593 33.99701,-0.69375 34.93341,0.24266 0.19088,0.19087 0.5735,5.37208 0.85027,11.51378 0.27677,6.14171 0.98891,12.07427 1.58254,13.18347 0.59363,1.1092 1.07932,2.74298 1.07932,3.63061 0,2.54997 8.49927,19.75853 11.09383,22.46178 4.28715,4.46677 4.74626,3.95622 -14.37766,15.98871 -5.38111,3.38571 -10.33111,6.35533 -11,6.59915 -0.66889,0.24382 -2.63909,-1.27374 -4.37822,-3.37235 z"
       id="path377" />
    <path
       style="fill:#000000"
       d="m 1265.4139,727.77523 -14.0861,-9.07726 3.1039,-5.09898 c 1.7071,-2.80445 6.5136,-10.27399 10.681,-16.59899 4.1674,-6.325 8.5836,-13.1875 9.8138,-15.25 1.2301,-2.0625 2.6011,-3.75 3.0467,-3.75 0.4455,0 1.0742,-1.0125 1.3971,-2.25 0.3229,-1.2375 1.6639,-3.58105 2.98,-5.20788 l 2.3929,-2.95788 8.3784,5.52051 c 15.3492,10.11354 17.3667,11.39046 19.1534,12.12226 1.5151,0.62059 -0.7186,4.46305 -15.2597,26.25 -9.369,14.03765 -17.1427,25.4898 -17.2749,25.44924 -0.1322,-0.0406 -6.5791,-4.15853 -14.3265,-9.15102 z"
       id="path375" />
    <path
       style="fill:#000000"
       d="m 94.979676,741.46712 c -1.196568,-1.93609 -2.694001,-4.07073 -3.327628,-4.74364 C 91.018422,736.05056 88.704246,731.9 86.509437,727.5 c -2.19481,-4.4 -4.370745,-8.27531 -4.835411,-8.6118 -0.464665,-0.3365 -0.817229,-0.89683 -0.783475,-1.2452 C 81.072432,715.7659 79.626411,711 78.875,711 c -0.48125,0 -0.821711,-0.3375 -0.756579,-0.75 0.06513,-0.4125 0.0089,-1.0875 -0.125,-1.5 -0.133882,-0.4125 -0.338536,-1.0875 -0.454788,-1.5 C 77.422382,706.8375 77.065646,705.825 76.745887,705 75.011424,700.52497 72,689.35508 72,687.39669 c 0,-1.24657 -0.441971,-3.42896 -0.982159,-4.84976 -1.608465,-4.23059 -2.254661,-31.24208 -0.761115,-31.8152 1.426879,-0.54755 28.684717,-0.12362 29.263455,0.45512 0.209503,0.2095 0.891709,5.54067 1.516009,11.84703 1.42817,14.42663 4.10129,27.51532 7.40061,36.23644 3.74199,9.89121 10.38503,22.81967 13.34379,25.96925 1.41548,1.50676 2.38141,2.91708 2.14651,3.13405 -0.60792,0.56149 -23.08735,14.63763 -25.099472,15.71675 -1.309372,0.70223 -2.144597,0.13283 -3.847952,-2.62325 z"
       id="path373" />
    <path
       style="fill:#000000"
       d="m 1301.5,750.89041 c -4.95,-3.29638 -10.7029,-6.96175 -12.7842,-8.14526 -2.0813,-1.18351 -3.6563,-2.68456 -3.5,-3.33567 0.5609,-2.33674 32.3074,-49.36142 33.3401,-49.38518 0.5807,-0.0134 4.6307,2.28146 9,5.09961 4.3692,2.81815 9.8402,6.30565 12.1576,7.75 2.3174,1.44435 4.2299,3.12579 4.25,3.73654 0.034,1.04066 -1.1132,2.89799 -7.9631,12.88955 -1.5082,2.2 -5.8378,8.725 -9.6213,14.5 -3.7835,5.775 -7.2166,10.65 -7.6291,10.83333 -0.4125,0.18334 -0.75,0.81894 -0.75,1.41246 0,1.39738 -6.0076,10.77228 -6.8542,10.69612 -0.3552,-0.032 -4.6958,-2.75513 -9.6458,-6.0515 z"
       id="path371" />
    <path
       style="fill:#000000"
       d="m 179.5,768.8865 c -3.3,-2.75099 -11.175,-8.9787 -17.5,-13.83935 -12.48416,-9.59387 -31.28079,-26.7838 -30.5609,-27.94861 0.24577,-0.39767 6.79814,-4.70108 14.56081,-9.56313 l 14.11395,-8.84009 4.19307,4.00384 c 3.49164,3.33406 14.43163,12.39031 18.21253,15.07654 0.5607,0.39837 3.9357,3.23052 7.5,6.29367 3.5643,3.06316 9.08069,7.51427 12.25865,9.89137 5.13246,3.83905 5.63529,4.52276 4.5,6.1187 -4.194,5.89573 -19.44154,23.79067 -20.27811,23.79896 -0.55,0.005 -3.7,-2.2409 -7,-4.9919 z"
       id="path369" />
    <path
       style="fill:#000000"
       d="m 1228.3305,783.20785 c -6.6933,-5.33932 -12.4935,-10.0331 -12.8895,-10.43063 -0.3959,-0.39753 0.395,-2.19753 1.7576,-4 3.6522,-4.83115 9.5889,-13.3417 14.8423,-21.27722 5.5654,-8.40669 16.2133,-24.47196 17.0773,-25.76577 0.34,-0.50915 2.5535,0.29595 4.9188,1.78911 11.263,7.11003 23.963,15.60383 23.963,16.02653 0,0.2587 -2.6435,4.40331 -5.8745,9.21024 -27.5335,40.96315 -29.8551,44.27379 -30.9942,44.19774 -0.3472,-0.0232 -6.1076,-4.41068 -12.8008,-9.75 z"
       id="path367" />
    <path
       style="fill:#000000"
       d="m 153.12562,796.36928 c -29.87241,-23.73636 -43.66235,-35.99284 -51.281,-45.5785 l -2.948081,-3.70922 2.191011,-1.29078 c 1.20505,-0.70993 7.31421,-4.5318 13.5759,-8.49305 l 11.3849,-7.20227 8.72583,8.59149 c 4.7992,4.72531 12.55082,11.55133 17.22582,15.16891 10.9412,8.46647 28.0983,22.08418 29.89115,23.72482 1.16528,1.06636 -0.20137,3.19257 -8.41777,13.09618 -5.39489,6.50273 -10.07091,12.11971 -10.39114,12.48218 -0.32023,0.36247 -4.80071,-2.69292 -9.95662,-6.78976 z"
       id="path365" />
    <path
       style="fill:#000000"
       d="M 212.46583,795.396 C 199.83462,785.1655 189.5,776.42603 189.5,775.97496 c 0,-0.91349 8.27039,-11.02557 16.12112,-19.71104 l 5.12112,-5.66564 12.37888,10.02234 c 6.80838,5.51228 16.99138,13.75028 22.62888,18.30667 5.6375,4.55638 10.25,8.50383 10.25,8.77211 0,0.4658 -17.04856,22.44847 -19.42668,25.04906 -0.88994,0.97319 -6.20533,-2.85281 -24.10749,-17.35246 z"
       id="path363" />
    <path
       style="fill:#000000"
       d="m 1268.8857,815.77394 c -0.7621,-0.74504 -6.1107,-5.10231 -11.8857,-9.68282 -5.775,-4.5805 -10.6486,-8.72076 -10.8303,-9.20056 -0.1817,-0.4798 1.0558,-2.55399 2.75,-4.60931 1.6942,-2.05531 3.0803,-4.27191 3.0803,-4.92576 0,-0.65385 0.3587,-1.33882 0.7972,-1.52216 0.4385,-0.18333 7.4565,-10.09011 15.5956,-22.01506 l 14.7984,-21.68172 11.6544,7.55861 c 6.4099,4.15724 12.4158,8.08807 13.3463,8.73518 1.5185,1.05596 0.9546,2.28221 -5.5,11.96172 -3.9555,5.93183 -7.6419,11.50747 -8.1919,12.3903 -6.0801,9.75957 -19.157,28.39098 -23.5351,33.53193 -0.3814,0.44785 -1.317,0.2047 -2.0792,-0.54035 z"
       id="path361" />
    <path
       style="fill:#000000"
       d="m 206,838.95648 c -2.475,-2.20399 -11.25,-9.3559 -19.5,-15.89311 -8.25,-6.53722 -16.5352,-13.19325 -18.41156,-14.79117 l -3.41157,-2.90533 10.11909,-12.21861 c 5.5655,-6.72024 10.47571,-12.16573 10.91157,-12.10109 0.43586,0.0646 11.04282,8.43127 23.57103,18.59252 l 22.77857,18.47501 -2.27857,2.94229 c -1.25321,1.61826 -5.53752,6.87996 -9.52069,11.69265 -3.98317,4.8127 -7.24567,9.08786 -7.25,9.50036 -0.0184,1.75632 -2.81083,0.44397 -7.00787,-3.29352 z"
       id="path359" />
    <path
       style="fill:#000000"
       d="m 1182.5587,841.74172 c -2.0125,-2.33294 -3.9833,-4.69172 -4.3796,-5.24172 -0.3963,-0.55 -3.5237,-4.27405 -6.9498,-8.27568 -3.4261,-4.00162 -6.2083,-7.60162 -6.1826,-8 0.026,-0.39837 4.1303,-3.87432 9.1213,-7.72432 9.2577,-7.14131 27.1812,-24.12445 34.6559,-32.83767 2.2826,-2.66072 4.5424,-4.68572 5.022,-4.5 0.4795,0.18572 2.8479,1.98431 5.263,3.99688 2.4151,2.01256 8.0376,6.5153 12.4944,10.00607 l 8.1033,6.34687 -5.1033,6.11445 c -8.0885,9.69112 -40.6129,39.76341 -47.2444,43.68247 -0.6504,0.38439 -2.7145,-1.14958 -4.8002,-3.56735 z"
       id="path357" />
    <path
       style="fill:#000000"
       d="m 263.02454,835.86436 c -12.33319,-9.80937 -23.05493,-18.46618 -23.8261,-19.23735 -1.20284,-1.20284 0.0409,-3.19479 8.75029,-14.01457 C 253.53256,795.6756 258.43042,790 258.83285,790 c 0.40243,0 8.36717,6.04244 17.69942,13.42765 C 299.70867,821.76862 305,826.16637 305,827.08786 c 0,0.43398 -2.8125,4.42963 -6.25,8.87922 -3.4375,4.44959 -7.83658,10.2597 -9.77574,12.91134 l -3.52574,4.82117 z"
       id="path355" />
    <path
       style="fill:#000000"
       d="m 1209.324,873.25 c -0.6364,-0.9625 -5.2181,-6.46706 -10.1816,-12.23236 l -9.0244,-10.48236 7.191,-6.60844 c 3.955,-3.63464 13.266,-12.00498 20.691,-18.60076 13.1308,-11.66436 17.7852,-16.33049 23.0549,-23.11308 l 2.5538,-3.287 2.4456,2.15779 c 1.3451,1.18679 4.9207,3.98687 7.9457,6.2224 3.025,2.23554 7.628,5.84358 10.2288,8.01788 l 4.7288,3.95327 -5.2192,6.11133 c -13.9212,16.30071 -25.7451,27.71395 -44.9216,43.36133 -4.2128,3.4375 -7.8117,6.25 -7.9976,6.25 -0.186,0 -0.8588,-0.7875 -1.4952,-1.75 z"
       id="path353" />
    <path
       style="fill:#000000"
       d="M 252.40343,876.19831 C 238.30065,864.53105 227.17885,856 226.07121,856 225.48204,856 225,855.52344 225,854.94098 c 0,-0.58246 -0.46115,-0.77401 -1.02478,-0.42567 -0.56362,0.34834 -0.90112,0.0756 -0.75,-0.60605 0.15113,-0.68166 -2.01001,-2.84501 -4.80253,-4.80742 l -5.07731,-3.56803 8.08755,-10.01691 c 4.44815,-5.50929 9.10249,-11.32405 10.34297,-12.92167 l 2.25543,-2.90478 4.23434,3.33283 c 2.32888,1.83305 4.90933,3.91867 5.73433,4.6347 0.825,0.71604 9.67536,7.7546 19.66746,15.64125 l 18.16746,14.33937 -3.96916,4.9307 c -2.18304,2.71189 -5.36113,6.9557 -7.06243,9.4307 -3.32102,4.83133 -8.8435,11.03287 -9.7495,10.94831 -0.30461,-0.0284 -4.19729,-3.06592 -8.6504,-6.75 z"
       id="path351" />
    <path
       style="fill:#000000"
       d="m 1121.5,883.75482 c -2.75,-4.4193 -6.8867,-11.00953 -9.1928,-14.64496 -2.306,-3.63542 -4.2185,-6.87157 -4.25,-7.19145 -0.031,-0.31987 2.3053,-2.10221 5.1928,-3.96076 5.2698,-3.39192 13.2367,-9.10846 19.7545,-14.17463 1.9225,-1.49434 9.2661,-6.97218 16.319,-12.17298 l 12.8234,-9.45599 6.6913,7.67298 c 3.6801,4.22013 8.6795,10.08386 11.1097,13.03051 4.3947,5.32875 4.4072,5.36637 2.3412,7 -19.2804,15.24496 -34.158,26.68801 -39.7891,30.60356 -3.85,2.67709 -9.025,6.32125 -11.5,8.09813 l -4.5,3.23069 z"
       id="path349" />
    <path
       style="fill:#000000"
       d="m 312,875.02643 c -12.375,-9.88291 -22.90052,-18.58206 -23.39004,-19.33145 -0.63266,-0.96854 1.39151,-4.23099 7,-11.28225 4.33952,-5.45584 8.854,-11.25103 10.03217,-12.87819 1.65139,-2.28073 2.4532,-2.70799 3.5,-1.86506 0.74683,0.60138 7.43287,5.90757 14.85787,11.79154 7.425,5.88396 15.60852,12.46231 18.18559,14.61855 2.57708,2.15624 4.8962,3.92043 5.15361,3.92043 0.81733,0 7.6608,6.33656 7.6608,7.09334 0,0.39894 -2.5875,3.88233 -5.75,7.74088 -3.1625,3.85855 -7.51618,9.52435 -9.67485,12.59066 -2.15867,3.06632 -4.18367,5.57407 -4.5,5.57279 C 334.75882,892.99639 324.375,884.90933 312,875.02643 Z"
       id="path347" />
    <path
       style="fill:#000000"
       d="m 1052.545,915.25 c -0.9509,-3.1625 -3.0641,-9.96856 -4.6961,-15.12457 -1.632,-5.15602 -2.746,-9.95109 -2.4757,-10.65571 0.2704,-0.70462 1.9846,-1.58959 3.8092,-1.9666 4.4922,-0.92816 11.3922,-3.23545 14.6454,-4.89723 1.4697,-0.75076 4.2472,-1.694 6.1722,-2.0961 3.5066,-0.73248 26.8331,-11.84373 32.5332,-15.49677 l 3.0332,-1.9439 6.9668,11.18875 c 3.8317,6.15381 7.9976,12.8761 9.2574,14.93843 l 2.2906,3.74969 -13.7906,6.90686 C 1089.2964,910.36754 1061.8461,921 1055.6941,921 c -0.862,0 -2.1,-2.26046 -3.1491,-5.75 z"
       id="path345" />
    <path
       style="fill:#000000"
       d="m 1142.25,916.99365 c -1.7875,-2.73373 -3.25,-5.15882 -3.25,-5.38909 0,-0.23027 -2.0241,-3.49799 -4.498,-7.26161 -2.4739,-3.76362 -4.4882,-7.29295 -4.4762,-7.84295 0.012,-0.55 3.0229,-3.025 6.6909,-5.5 9.1088,-6.14622 29.7608,-21.63692 41.3357,-31.00528 l 9.5524,-7.7314 2.6976,2.32037 c 1.4837,1.27621 2.6976,2.60451 2.6976,2.95177 0,0.34727 3.4745,4.69398 7.7212,9.65935 l 7.7212,9.02794 -2.9712,2.42032 c -1.6342,1.33117 -4.9127,4.07998 -7.2857,6.10847 -2.373,2.02849 -7.548,5.91201 -11.5,8.63006 -8.0589,5.5426 -16.5496,12.21732 -18.4355,14.4926 -0.6875,0.82943 -1.25,1.16909 -1.25,0.75479 0,-0.61976 -8.2922,4.6632 -10,6.37101 -1.2345,1.23454 -10.1327,6.99815 -10.7792,6.98203 -0.3965,-0.01 -2.1833,-2.25465 -3.9708,-4.98838 z"
       id="path343" />
    <path
       style="fill:#000000"
       d="m 302.5,916.36252 c -11.35305,-9.29089 -32.9898,-26.52205 -36.0521,-28.71131 -1.42729,-1.02038 -2.35117,-2.4609 -2.06186,-3.21484 C 265.13654,882.4806 283.23967,860 284.06411,860 c 0.37824,0 11.26437,8.46198 24.19141,18.8044 20.63332,16.50792 23.35367,19.00958 22.27521,20.48446 -0.67566,0.92403 -1.52149,1.38705 -1.87961,1.02893 C 328.29301,899.95967 328,900.27616 328,901.0211 c 0,1.48651 -7.85524,11.86869 -12.27892,16.2289 -1.53452,1.5125 -2.49442,2.75 -2.13311,2.75 0.3613,0 0.0967,0.675 -0.58797,1.5 -0.68469,0.825 -1.52729,1.47962 -1.87244,1.4547 C 310.7824,922.9298 306.9,919.96331 302.5,916.36252 Z"
       id="path341" />
    <path
       style="fill:#000000"
       d="m 985.10833,928.70068 c -1.81777,-10.4384 -4.08251,-26.05983 -3.81661,-26.32573 0.13707,-0.13707 5.86501,-1.19936 12.72875,-2.36064 11.32523,-1.91612 32.00813,-6.3468 42.65053,-9.13661 5.0081,-1.31282 5.9592,-0.8451 6.8812,3.38377 0.3883,1.78119 2.2429,7.9377 4.1212,13.68114 1.8784,5.74343 3.2828,11.35874 3.1209,12.47846 -0.2448,1.69338 -1.8924,2.41052 -9.7943,4.26309 C 1032.1828,926.7513 989.07488,935 987.08908,935 c -0.48607,0 -1.37741,-2.8347 -1.98075,-6.29932 z"
       id="path339" />
    <path
       style="fill:#000000"
       d="m 385.98137,934.29168 c -1.36475,-0.94641 -12.92195,-10.1883 -25.68267,-20.53754 l -23.20129,-18.8168 7.59094,-9.71867 c 4.17501,-5.34527 8.84582,-11.24455 10.37957,-13.1095 l 2.78864,-3.39084 4.32172,3.3786 c 2.37695,1.85823 11.96297,9.4591 21.30227,16.89083 9.3393,7.43173 18.4518,14.54096 20.25,15.79829 1.7982,1.25733 3.26945,2.65695 3.26945,3.11027 0,1.24213 -16.66855,27.4932 -17.66901,27.82668 -0.47754,0.15918 -1.98486,-0.48491 -3.34962,-1.43132 z"
       id="path337" />
    <path
       style="fill:#000000"
       d="M 922.98119,944.75 C 922.97085,944.0625 922.07931,937.425 921,930 c -1.07931,-7.425 -1.97085,-14.40023 -1.98119,-15.50051 -0.0168,-1.78442 1.25043,-2.20068 11.73119,-3.85359 6.4625,-1.01919 19.58844,-3.17052 29.16875,-4.78073 9.58032,-1.61021 17.72443,-2.5761 18.09804,-2.14642 1.1455,1.31746 5.67528,32.28125 4.72251,32.28125 -0.2851,0 -4.05557,0.66381 -8.37883,1.47513 -4.32326,0.81133 -9.43547,1.71906 -11.36047,2.0172 -1.925,0.29813 -10.925,1.85938 -20,3.46944 -19.05828,3.38126 -19.99358,3.4648 -20.01881,1.78823 z"
       id="path335" />
    <path
       style="fill:#000000"
       d="m 860.67767,955.34433 c -0.37272,-0.37271 -0.67896,-1.84016 -0.68054,-3.261 C 859.99556,950.6625 859.09685,944.1 858,937.5 c -1.09685,-6.6 -1.99556,-12.70359 -1.99713,-13.56354 -0.002,-1.24909 3.36572,-2.10462 16.74713,-4.25404 24.59832,-3.95116 42.62572,-6.64298 42.84668,-6.39778 0.10674,0.11845 1.14956,6.74036 2.31739,14.71536 1.16782,7.975 2.32428,15.41608 2.5699,16.53574 0.42439,1.93459 -0.95528,2.24931 -27.76869,6.33437 -15.51841,2.36425 -28.92283,4.49061 -29.78761,4.72526 -0.86479,0.23465 -1.87729,0.12168 -2.25,-0.25104 z"
       id="path333" />
    <path
       style="fill:#000000"
       d="m 1066.393,956.22717 c -1.1592,-0.76145 -5.1571,-12.04998 -8.2784,-23.37484 l -1.8322,-6.64768 5.6735,-1.1162 c 7.5692,-1.48913 35.127,-12.61239 51.194,-20.66354 7.1185,-3.56712 13.3772,-6.21717 13.9082,-5.88901 0.9514,0.58803 8.9419,12.21853 8.9419,13.0154 0,0.22542 1.5953,2.90372 3.5451,5.95177 1.9498,3.04805 3.2981,5.94166 2.9961,6.43023 -1.2678,2.05144 -34.5389,19.57371 -38.9758,20.52669 -0.586,0.12585 -3.1408,1.15622 -5.6773,2.2897 -3.7654,1.68259 -19.2912,6.94205 -28.3881,9.61663 -1.1,0.32341 -2.4982,0.2608 -3.107,-0.13915 z"
       id="path331" />
    <path
       style="fill:#000000"
       d="m 798,964.51832 c 0,-0.26493 -1.125,-7.33684 -2.5,-15.71536 -1.375,-8.37852 -2.5,-15.84568 -2.5,-16.59369 0,-0.87003 0.99074,-1.28115 2.75,-1.14113 1.5125,0.12038 3.425,-0.0206 4.25,-0.31333 1.21644,-0.4316 19.29895,-3.17514 49.25,-7.47239 2.76002,-0.396 3.7702,-0.1743 3.82651,0.83977 0.0421,0.7578 0.22603,2.05281 0.40878,2.87781 1.45437,6.56571 4.26618,28.62912 3.71214,29.12803 -0.38359,0.34542 -4.29743,1.15762 -8.69743,1.80488 -51.64383,7.59708 -50.5,7.44792 -50.5,6.58541 z"
       id="path329" />
    <path
       style="fill:#000000"
       d="m 443,962.06391 c -22.11529,-8.81618 -35.78733,-14.89162 -43.5,-19.33008 -3.85,-2.21559 -7.15272,-4.1523 -7.33939,-4.3038 C 391.33596,937.76069 408.85284,910 410.09985,910 c 0.47571,0 3.91035,1.87475 7.63254,4.16612 8.45019,5.20192 30.04261,15.66225 41.37012,20.04155 l 8.55925,3.30906 -5.08088,15.16377 -5.08088,15.16378 z"
       id="path327" />
    <path
       style="fill:#000000"
       d="m 361.48833,962.70937 c -3.85642,-2.86515 -12.63142,-9.66644 -19.5,-15.11397 -6.86858,-5.44754 -15.94964,-12.64754 -20.18013,-16 -4.23049,-3.35247 -7.71799,-6.39165 -7.75,-6.75374 -0.0734,-0.83061 12.00954,-16.25208 16.13388,-20.59166 1.69885,-1.7875 3.73805,-3.25 4.53156,-3.25 0.79351,0 10.8063,7.61938 22.25064,16.93196 11.44435,9.31258 22.63983,18.20008 24.87886,19.75 2.23903,1.54992 4.08804,3.20918 4.10891,3.68723 0.0209,0.47805 -1.61205,3.58538 -3.62872,6.90517 -2.01666,3.31979 -3.66666,6.62136 -3.66666,7.33682 0,0.71547 -0.3509,1.08398 -0.77978,0.81892 -0.42887,-0.26506 -2.26637,2.22439 -4.08333,5.53212 -1.81696,3.30773 -3.75356,6.00111 -4.30356,5.98529 -0.55,-0.0158 -4.15525,-2.37298 -8.01167,-5.23814 z"
       id="path325" />
    <path
       style="fill:#000000"
       d="m 991.13272,966.84863 c -1.93819,-10.88003 -4.19479,-26.12074 -3.90731,-26.38932 0.15102,-0.14111 10.26794,-2.09751 22.48199,-4.34757 12.2141,-2.25005 26.8327,-5.18167 32.4858,-6.5147 5.653,-1.33303 10.5957,-2.22748 10.9838,-1.98767 0.388,0.23981 2.3424,5.71331 4.343,12.16332 2.0007,6.45002 4.0542,13.03778 4.5633,14.63947 0.5092,1.60168 0.7088,3.12911 0.4436,3.39428 -1.055,1.05496 -36.8687,9.4288 -50.0269,11.69711 -7.7,1.32739 -15.40317,2.70149 -17.11816,3.05357 l -3.11816,0.64014 z"
       id="path323" />
    <path
       style="fill:#000000"
       d="m 734.825,971.01905 c -0.25628,-4.42128 -0.67449,-7.54638 -2.27754,-17.01905 -2.48114,-14.66152 -3.17263,-13.47254 8.70254,-14.96355 5.6375,-0.70782 11.15,-1.46999 12.25,-1.6937 1.1,-0.22371 5.375,-0.82774 9.5,-1.34229 4.125,-0.51456 10.875,-1.53079 15,-2.2583 12.9664,-2.28682 12.11497,-2.8483 14.03872,9.25784 0.91769,5.775 1.97414,13.24528 2.34766,16.60062 l 0.67913,6.10063 -10.78275,1.29613 c -14.3515,1.72511 -12.76389,1.51506 -29.78276,3.94046 -8.25,1.17572 -16.0125,2.35426 -17.25,2.61897 -1.91755,0.41018 -2.27586,0.0352 -2.425,-2.53776 z"
       id="path321" />
    <path
       style="fill:#000000"
       d="m 928.97679,982.25 c -0.0128,-0.4125 -1.07086,-7.6125 -2.35133,-16 -1.28047,-8.3875 -2.13997,-15.25 -1.91001,-15.25 1.54444,0 28.63933,-4.46574 42.26407,-6.96589 9.04098,-1.65904 16.71704,-2.68291 17.05789,-2.27527 0.53671,0.64188 2.42285,12.06231 4.50183,27.25824 l 0.61799,4.51709 -28.82861,4.76998 c -30.31446,5.01582 -31.31482,5.14173 -31.35183,3.94585 z"
       id="path319" />
    <path
       style="fill:#000000"
       d="m 672,980.14016 c 0,-2.21202 -0.87532,-8.11507 -3.89682,-26.27974 l -0.77174,-4.63959 6.08428,-0.72859 c 3.34635,-0.40073 7.65928,-0.90351 9.58428,-1.11728 1.925,-0.21377 5.975,-0.81265 9,-1.33084 4.76984,-0.81709 17.58254,-2.66022 31.67344,-4.5563 l 4.17343,-0.56158 0.711,5.78688 c 0.39104,3.18278 1.47632,10.63442 2.41172,16.5592 l 1.70074,10.77232 -2.08517,0.45556 c -2.53121,0.55302 -36.2908,5.32336 -42.58516,6.01743 -2.475,0.27292 -7.0875,0.86778 -10.25,1.32191 -5.6999,0.81851 -5.75,0.8037 -5.75,-1.69938 z"
       id="path317" />
    <path
       style="fill:#000000"
       d="m 513.5,987.0066 c -7.26673,-1.95504 -29.63391,-9.44497 -44.65824,-14.95438 l -8.65825,-3.17496 4.88515,-14.5822 c 2.68683,-8.02021 5.09873,-14.79579 5.35979,-15.05685 0.26106,-0.26106 9.04202,2.51259 19.51325,6.16365 16.06344,5.60094 22.94456,7.53726 36.0583,10.14665 0.825,0.16416 2.52495,0.3329 3.77767,0.37498 2.52802,0.0849 2.51596,-1.29734 0.16654,19.07651 -1.63592,14.1864 -1.5621,14.00812 -5.77367,13.94494 C 522.15175,988.91465 517.35,988.0424 513.5,987.0066 Z"
       id="path315" />
    <path
       style="fill:#000000"
       d="m 607.53321,988.72257 c -0.76261,-3.45116 -3.70723,-30.88482 -3.35049,-31.21499 0.1745,-0.16151 4.59228,-0.76611 9.81728,-1.34356 5.225,-0.57745 18.65149,-2.23659 29.83665,-3.68698 11.18515,-1.45039 20.53213,-2.4416 20.77105,-2.20267 0.75529,0.75529 4.83109,31.62017 4.25201,32.19925 -0.30414,0.30414 -12.88449,2.10924 -27.95634,4.01133 -15.07185,1.9021 -28.63539,3.68377 -30.1412,3.95927 -2.2232,0.40676 -2.83016,0.0831 -3.22896,-1.72165 z"
       id="path313" />
    <path
       style="fill:#000000"
       d="m 864.04743,977.38945 c -1.69722,-11.48086 -2.00503,-15.79762 -1.16357,-16.31767 1.78117,-1.10082 31.00891,-5.25608 32.12387,-4.567 0.54575,0.33729 0.99227,0.22697 0.99227,-0.24515 0,-0.83098 24.78612,-4.84564 25.43501,-4.11976 0.68816,0.76983 4.928,30.83046 4.42005,31.3384 -0.41872,0.41872 -56.48925,9.46933 -58.92749,9.51177 -0.31484,0.005 -1.61091,-7.01479 -2.88014,-15.60059 z"
       id="path311" />
    <path
       style="fill:#000000"
       d="m 545.98341,991.27407 c -6.74773,-0.67426 -12.48095,-1.43827 -12.74048,-1.6978 -0.80009,-0.80009 3.06759,-29.03598 4.07021,-29.71447 0.5187,-0.351 0.63085,-1.1434 0.24923,-1.76088 -0.5063,-0.81922 1.68913,-0.91702 8.12188,-0.36181 4.84866,0.41849 17.20433,0.76089 27.45703,0.76089 h 18.64129 l 1.1343,10.5 c 0.62386,5.775 1.40084,13.04268 1.72661,16.15041 l 0.59232,5.65041 -8.3679,0.59726 c -15.91198,1.13572 -28.66469,1.09704 -40.88449,-0.12401 z"
       id="path309" />
    <path
       style="fill:#000000"
       d="m 803.60954,999.75 c -0.92337,-4.84778 -2.72167,-15.40274 -3.10934,-18.25 -0.22466,-1.65 -0.67521,-4.86938 -1.00124,-7.15418 l -0.59277,-4.15418 3.79691,-0.57153 c 2.08829,-0.31434 10.3219,-1.4868 18.2969,-2.60547 7.975,-1.11868 19.7875,-2.8611 26.25,-3.87207 10.67492,-1.66994 11.76432,-1.69193 11.90652,-0.24034 0.34068,3.47762 0.88064,7.07543 2.78435,18.55253 1.09062,6.57512 1.88758,12.01137 1.77103,12.08055 -0.11654,0.0692 -5.8369,0.92191 -12.7119,1.89497 -6.875,0.97305 -19.475,2.84814 -28,4.16686 -19.00202,2.93946 -18.85991,2.93826 -19.39046,0.15286 z"
       id="path307" />
    <path
       style="fill:#000000"
       d="m 435,1001.8771 c -18.80701,-7.41945 -44.8217,-20.26383 -57.80286,-28.53931 l -5.30286,-3.38058 1.92461,-2.7286 c 1.05854,-1.50074 3.1307,-4.97861 4.60481,-7.72861 1.47411,-2.75 4.22833,-7.23951 6.12048,-9.97669 1.89215,-2.73717 3.58529,-5.41171 3.76252,-5.94341 0.17723,-0.5317 3.44323,0.82616 7.25777,3.01747 7.92613,4.55324 29.78938,14.2968 47.04367,20.96543 6.46432,2.49841 12.09711,4.75503 12.51731,5.01473 1.16493,0.71997 -9.84385,31.89747 -11.33115,32.09037 -0.71186,0.092 -4.6693,-1.1635 -8.7943,-2.7908 z"
       id="path305" />
    <path
       style="fill:#000000"
       d="m 740.63298,1008.25 c -0.28926,-1.5125 -0.76241,-4.55 -1.05146,-6.75 -0.28904,-2.2 -0.79863,-5.8 -1.13241,-8 -0.33378,-2.2 -0.77977,-5.35 -0.99108,-7 -0.21131,-1.65 -0.67296,-3.99209 -1.02589,-5.20465 -0.51149,-1.75734 -0.16391,-2.31282 1.71309,-2.73779 5.46284,-1.23682 46.418,-6.6045 52.0464,-6.82133 l 6.13197,-0.23623 1.26579,7.38618 c 0.69619,4.0624 1.28186,8.1124 1.30149,9 0.0196,0.8876 0.53912,4.46442 1.15441,7.94848 0.6153,3.48406 0.96932,6.47664 0.78672,6.65024 -0.32802,0.3118 -56.90823,8.5151 -58.73065,8.5151 -0.51835,0 -1.17912,-1.2375 -1.46838,-2.75 z"
       id="path303" />
    <path
       style="fill:#000000"
       d="m 677.59773,1017.2491 c -0.30845,-1.512 -1.2543,-7.4741 -2.1019,-13.2491 -0.8476,-5.775 -1.77629,-11.9625 -2.06377,-13.75 -0.48955,-3.04397 -0.33758,-3.25 2.39719,-3.25 1.60593,0 12.53882,-1.35427 24.29531,-3.00949 11.75649,-1.65521 23.62544,-3.2831 26.37544,-3.61752 2.75,-0.33442 5.3051,-0.78669 5.678,-1.00504 0.80697,-0.4725 1.59051,1.83775 2.24931,6.63205 0.26453,1.925 0.93104,6.2 1.48114,9.5 0.55011,3.3 1.25225,8.3104 1.56031,11.1343 l 0.56012,5.1343 -4.76444,0.6423 c -2.62044,0.3533 -7.68944,1.0857 -11.26444,1.6276 -3.575,0.5418 -13.25,1.8806 -21.5,2.975 -8.25,1.0944 -16.65183,2.2137 -18.67073,2.4873 -3.36444,0.456 -3.71753,0.2681 -4.23154,-2.2517 z"
       id="path301" />
    <path
       style="fill:#000000"
       d="m 516,1026.2962 c -9.70857,-1.6753 -23.52823,-4.7545 -29,-6.4616 -19.39656,-6.0516 -39,-13.2533 -39,-14.3275 0,-1.1953 9.88968,-30.69126 10.50558,-31.33293 0.17201,-0.17921 4.51613,1.24694 9.65359,3.16921 20.4575,7.65455 45.67417,15.47958 52.10236,16.16799 4.08542,0.43751 6.73847,1.18426 6.73847,1.89666 0,0.64627 -0.72392,6.55637 -1.6087,13.13347 -2.02065,15.0207 -2.10847,15.6883 -2.26368,17.2085 -0.12578,1.2319 -2.22265,1.3926 -7.12762,0.5462 z"
       id="path299" />
    <path
       style="fill:#000000"
       d="m 610.53719,1026.9398 c 0.34924,-0.5651 0.1929,-1.5702 -0.34743,-2.2336 -1.59319,-1.9561 -3.05524,-27.17406 -1.65654,-28.57275 0.92617,-0.92617 60.90603,-8.09561 61.5601,-7.35832 0.68676,0.77413 5.22615,31.29077 4.71199,31.67687 -0.37142,0.279 -34.70164,4.676 -40.30531,5.1624 -2.2,0.1909 -5.125,0.5907 -6.5,0.8885 -5.31418,1.1507 -18.10173,1.4707 -17.46281,0.4369 z"
       id="path297" />
  </g>
</svg>
